<?xml version="1.0" encoding="UTF-8" standalone="no"?>
<!DOCTYPE svg PUBLIC "-//W3C//DTD SVG 1.1//EN"
 "http://www.w3.org/Graphics/SVG/1.1/DTD/svg11.dtd">
<!-- Generated by graphviz version 2.43.0 (0)
 -->
<!-- Title: asyncpp/async_main.h Pages: 1 -->
<svg width="1099pt" height="335pt"
 viewBox="0.00 0.00 1099.47 335.00" xmlns="http://www.w3.org/2000/svg" xmlns:xlink="http://www.w3.org/1999/xlink">
<g id="graph0" class="graph" transform="scale(1 1) rotate(0) translate(4 331)">
<title>asyncpp/async_main.h</title>
<!-- Node1 -->
<g id="Node000001" class="node">
<title>Node1</title>
<g id="a_Node000001"><a xlink:title="Provides a main function running a simple_dispatcher and awaits the function async_main,...">
<polygon fill="#999999" stroke="#666666" points="635.97,-327 507.97,-327 507.97,-308 635.97,-308 635.97,-327"/>
<text text-anchor="middle" x="571.97" y="-315" font-family="Helvetica,sans-Serif" font-size="10.00">asyncpp/async_main.h</text>
</a>
</g>
</g>
<!-- Node2 -->
<g id="Node000002" class="node">
<title>Node2</title>
<g id="a_Node000002"><a xlink:href="fire__and__forget_8h_source.html" target="_top" xlink:title=" ">
<polygon fill="white" stroke="#666666" points="643.47,-272 500.47,-272 500.47,-253 643.47,-253 643.47,-272"/>
<text text-anchor="middle" x="571.97" y="-260" font-family="Helvetica,sans-Serif" font-size="10.00">asyncpp/fire_and_forget.h</text>
</a>
</g>
</g>
<!-- Node1&#45;&gt;Node2 -->
<g id="edge1_Node000001_Node000002" class="edge">
<title>Node1&#45;&gt;Node2</title>
<g id="a_edge1_Node000001_Node000002"><a xlink:title=" ">
<path fill="none" stroke="#63b8ff" d="M571.97,-307.75C571.97,-300.8 571.97,-290.85 571.97,-282.13"/>
<polygon fill="#63b8ff" stroke="#63b8ff" points="575.47,-282.09 571.97,-272.09 568.47,-282.09 575.47,-282.09"/>
</a>
</g>
</g>
<!-- Node17 -->
<g id="Node000017" class="node">
<title>Node17</title>
<g id="a_Node000017"><a xlink:href="simple__dispatcher_8h_source.html" target="_top" xlink:title=" ">
<polygon fill="white" stroke="#666666" points="235.97,-272 77.97,-272 77.97,-253 235.97,-253 235.97,-272"/>
<text text-anchor="middle" x="156.97" y="-260" font-family="Helvetica,sans-Serif" font-size="10.00">asyncpp/simple_dispatcher.h</text>
</a>
</g>
</g>
<!-- Node1&#45;&gt;Node17 -->
<g id="edge26_Node000001_Node000017" class="edge">
<title>Node1&#45;&gt;Node17</title>
<g id="a_edge26_Node000001_Node000017"><a xlink:title=" ">
<path fill="none" stroke="#63b8ff" d="M507.58,-308.28C433.72,-298.84 312.68,-283.39 233.92,-273.33"/>
<polygon fill="#63b8ff" stroke="#63b8ff" points="233.93,-269.8 223.57,-272.01 233.05,-276.74 233.93,-269.8"/>
</a>
</g>
</g>
<!-- Node22 -->
<g id="Node000022" class="node">
<title>Node22</title>
<g id="a_Node000022"><a xlink:href="task_8h_source.html" target="_top" xlink:title=" ">
<polygon fill="white" stroke="#666666" points="970.97,-272 880.97,-272 880.97,-253 970.97,-253 970.97,-272"/>
<text text-anchor="middle" x="925.97" y="-260" font-family="Helvetica,sans-Serif" font-size="10.00">asyncpp/task.h</text>
</a>
</g>
</g>
<!-- Node1&#45;&gt;Node22 -->
<g id="edge33_Node000001_Node000022" class="edge">
<title>Node1&#45;&gt;Node22</title>
<g id="a_edge33_Node000001_Node000022"><a xlink:title=" ">
<path fill="none" stroke="#63b8ff" d="M628.84,-307.98C695.35,-298.03 804.71,-281.66 870.57,-271.79"/>
<polygon fill="#63b8ff" stroke="#63b8ff" points="871.38,-275.21 880.76,-270.27 870.35,-268.29 871.38,-275.21"/>
</a>
</g>
</g>
<!-- Node3 -->
<g id="Node000003" class="node">
<title>Node3</title>
<g id="a_Node000003"><a xlink:href="concepts_8h_source.html" target="_top" xlink:title=" ">
<polygon fill="white" stroke="#666666" points="869.47,-145.5 726.47,-145.5 726.47,-126.5 869.47,-126.5 869.47,-145.5"/>
<text text-anchor="middle" x="797.97" y="-133.5" font-family="Helvetica,sans-Serif" font-size="10.00">asyncpp/detail/concepts.h</text>
</a>
</g>
</g>
<!-- Node2&#45;&gt;Node3 -->
<g id="edge2_Node000002_Node000003" class="edge">
<title>Node2&#45;&gt;Node3</title>
<g id="a_edge2_Node000002_Node000003"><a xlink:title=" ">
<path fill="none" stroke="#63b8ff" d="M615.35,-252.94C644.1,-246.04 681.9,-234.55 711.97,-217 741.02,-200.03 768.35,-171.7 784.11,-153.71"/>
<polygon fill="#63b8ff" stroke="#63b8ff" points="787.03,-155.67 790.87,-145.8 781.71,-151.12 787.03,-155.67"/>
</a>
</g>
</g>
<!-- Node4 -->
<g id="Node000004" class="node">
<title>Node4</title>
<g id="a_Node000004"><a xlink:href="std__import_8h.html" target="_top" xlink:title="Provides a consistent import interface for coroutine, experimental/coroutine or a best effort fallbac...">
<polygon fill="white" stroke="#666666" points="850.97,-85 744.97,-85 744.97,-55 850.97,-55 850.97,-85"/>
<text text-anchor="start" x="752.97" y="-73" font-family="Helvetica,sans-Serif" font-size="10.00">asyncpp/detail/std</text>
<text text-anchor="middle" x="797.97" y="-62" font-family="Helvetica,sans-Serif" font-size="10.00">_import.h</text>
</a>
</g>
</g>
<!-- Node2&#45;&gt;Node4 -->
<g id="edge19_Node000002_Node000004" class="edge">
<title>Node2&#45;&gt;Node4</title>
<g id="a_edge19_Node000002_Node000004"><a xlink:title=" ">
<path fill="none" stroke="#63b8ff" d="M579.66,-252.95C600.53,-230.01 660.55,-165.78 717.97,-121 732.3,-109.82 749.24,-98.94 763.83,-90.2"/>
<polygon fill="#63b8ff" stroke="#63b8ff" points="765.73,-93.14 772.57,-85.05 762.18,-87.11 765.73,-93.14"/>
</a>
</g>
</g>
<!-- Node11 -->
<g id="Node000011" class="node">
<title>Node11</title>
<g id="a_Node000011"><a xlink:href="promise__allocator__base_8h_source.html" target="_top" xlink:title=" ">
<polygon fill="white" stroke="#666666" points="943.47,-217 812.47,-217 812.47,-187 943.47,-187 943.47,-217"/>
<text text-anchor="start" x="820.47" y="-205" font-family="Helvetica,sans-Serif" font-size="10.00">asyncpp/detail/promise</text>
<text text-anchor="middle" x="877.97" y="-194" font-family="Helvetica,sans-Serif" font-size="10.00">_allocator_base.h</text>
</a>
</g>
</g>
<!-- Node2&#45;&gt;Node11 -->
<g id="edge12_Node000002_Node000011" class="edge">
<title>Node2&#45;&gt;Node11</title>
<g id="a_edge12_Node000002_Node000011"><a xlink:title=" ">
<path fill="none" stroke="#63b8ff" d="M616.46,-252.99C665.12,-243.69 743.93,-228.63 802.33,-217.46"/>
<polygon fill="#63b8ff" stroke="#63b8ff" points="803.09,-220.88 812.25,-215.56 801.77,-214 803.09,-220.88"/>
</a>
</g>
</g>
<!-- Node13 -->
<g id="Node000013" class="node">
<title>Node13</title>
<g id="a_Node000013"><a xlink:title=" ">
<polygon fill="#e0e0e0" stroke="#999999" points="387.47,-79.5 342.47,-79.5 342.47,-60.5 387.47,-60.5 387.47,-79.5"/>
<text text-anchor="middle" x="364.97" y="-67.5" font-family="Helvetica,sans-Serif" font-size="10.00">utility</text>
</a>
</g>
</g>
<!-- Node2&#45;&gt;Node13 -->
<g id="edge25_Node000002_Node000013" class="edge">
<title>Node2&#45;&gt;Node13</title>
<g id="a_edge25_Node000002_Node000013"><a xlink:title=" ">
<path fill="none" stroke="#63b8ff" d="M500.07,-257.61C467.18,-252.35 429.86,-240.99 403.97,-217 367.97,-183.65 363.75,-121.1 364.1,-89.82"/>
<polygon fill="#63b8ff" stroke="#63b8ff" points="367.59,-89.92 364.38,-79.82 360.6,-89.72 367.59,-89.92"/>
</a>
</g>
</g>
<!-- Node14 -->
<g id="Node000014" class="node">
<title>Node14</title>
<g id="a_Node000014"><a xlink:href="policy_8h_source.html" target="_top" xlink:title=" ">
<polygon fill="white" stroke="#666666" points="510.47,-211.5 413.47,-211.5 413.47,-192.5 510.47,-192.5 510.47,-211.5"/>
<text text-anchor="middle" x="461.97" y="-199.5" font-family="Helvetica,sans-Serif" font-size="10.00">asyncpp/policy.h</text>
</a>
</g>
</g>
<!-- Node2&#45;&gt;Node14 -->
<g id="edge20_Node000002_Node000014" class="edge">
<title>Node2&#45;&gt;Node14</title>
<g id="a_edge20_Node000002_Node000014"><a xlink:title=" ">
<path fill="none" stroke="#63b8ff" d="M555.74,-252.87C537.7,-243.28 508.35,-227.67 487.29,-216.47"/>
<polygon fill="#63b8ff" stroke="#63b8ff" points="488.74,-213.27 478.27,-211.67 485.45,-219.45 488.74,-213.27"/>
</a>
</g>
</g>
<!-- Node16 -->
<g id="Node000016" class="node">
<title>Node16</title>
<g id="a_Node000016"><a xlink:title=" ">
<polygon fill="#e0e0e0" stroke="#999999" points="326.97,-211.5 276.97,-211.5 276.97,-192.5 326.97,-192.5 326.97,-211.5"/>
<text text-anchor="middle" x="301.97" y="-199.5" font-family="Helvetica,sans-Serif" font-size="10.00">atomic</text>
</a>
</g>
</g>
<!-- Node2&#45;&gt;Node16 -->
<g id="edge24_Node000002_Node000016" class="edge">
<title>Node2&#45;&gt;Node16</title>
<g id="a_edge24_Node000002_Node000016"><a xlink:title=" ">
<path fill="none" stroke="#63b8ff" d="M514.44,-252.95C467.36,-245.35 399.26,-232.98 340.97,-217 338.54,-216.33 336.05,-215.59 333.55,-214.8"/>
<polygon fill="#63b8ff" stroke="#63b8ff" points="334.65,-211.47 324.05,-211.6 332.41,-218.11 334.65,-211.47"/>
</a>
</g>
</g>
<!-- Node3&#45;&gt;Node4 -->
<g id="edge3_Node000003_Node000004" class="edge">
<title>Node3&#45;&gt;Node4</title>
<g id="a_edge3_Node000003_Node000004"><a xlink:title=" ">
<path fill="none" stroke="#63b8ff" d="M797.97,-126.37C797.97,-118.49 797.97,-106.45 797.97,-95.6"/>
<polygon fill="#63b8ff" stroke="#63b8ff" points="801.47,-95.36 797.97,-85.36 794.47,-95.36 801.47,-95.36"/>
</a>
</g>
</g>
<!-- Node7 -->
<g id="Node000007" class="node">
<title>Node7</title>
<g id="a_Node000007"><a xlink:title=" ">
<polygon fill="#e0e0e0" stroke="#999999" points="543.47,-19 478.47,-19 478.47,0 543.47,0 543.47,-19"/>
<text text-anchor="middle" x="510.97" y="-7" font-family="Helvetica,sans-Serif" font-size="10.00">functional</text>
</a>
</g>
</g>
<!-- Node3&#45;&gt;Node7 -->
<g id="edge10_Node000003_Node000007" class="edge">
<title>Node3&#45;&gt;Node7</title>
<g id="a_edge10_Node000003_Node000007"><a xlink:title=" ">
<path fill="none" stroke="#63b8ff" d="M778.24,-126.44C728.68,-104.94 598.73,-48.57 540.24,-23.2"/>
<polygon fill="#63b8ff" stroke="#63b8ff" points="541.4,-19.89 530.83,-19.12 538.61,-26.31 541.4,-19.89"/>
</a>
</g>
</g>
<!-- Node10 -->
<g id="Node000010" class="node">
<title>Node10</title>
<g id="a_Node000010"><a xlink:title=" ">
<polygon fill="#e0e0e0" stroke="#999999" points="913.47,-19 844.47,-19 844.47,0 913.47,0 913.47,-19"/>
<text text-anchor="middle" x="878.97" y="-7" font-family="Helvetica,sans-Serif" font-size="10.00">type_traits</text>
</a>
</g>
</g>
<!-- Node3&#45;&gt;Node10 -->
<g id="edge11_Node000003_Node000010" class="edge">
<title>Node3&#45;&gt;Node10</title>
<g id="a_edge11_Node000003_Node000010"><a xlink:title=" ">
<path fill="none" stroke="#63b8ff" d="M813.62,-126.38C827.84,-117.75 848.31,-103.15 859.97,-85 870.88,-68.01 875.53,-45.08 877.51,-29.17"/>
<polygon fill="#63b8ff" stroke="#63b8ff" points="881.01,-29.31 878.53,-19.01 874.05,-28.61 881.01,-29.31"/>
</a>
</g>
</g>
<!-- Node5 -->
<g id="Node000005" class="node">
<title>Node5</title>
<g id="a_Node000005"><a xlink:title=" ">
<polygon fill="#e0e0e0" stroke="#999999" points="1010.97,-19 958.97,-19 958.97,0 1010.97,0 1010.97,-19"/>
<text text-anchor="middle" x="984.97" y="-7" font-family="Helvetica,sans-Serif" font-size="10.00">cassert</text>
</a>
</g>
</g>
<!-- Node4&#45;&gt;Node5 -->
<g id="edge4_Node000004_Node000005" class="edge">
<title>Node4&#45;&gt;Node5</title>
<g id="a_edge4_Node000004_Node000005"><a xlink:title=" ">
<path fill="none" stroke="#63b8ff" d="M842.76,-54.99C875.28,-44.81 918.71,-31.23 948.98,-21.76"/>
<polygon fill="#63b8ff" stroke="#63b8ff" points="950.21,-25.04 958.71,-18.71 948.12,-18.36 950.21,-25.04"/>
</a>
</g>
</g>
<!-- Node6 -->
<g id="Node000006" class="node">
<title>Node6</title>
<g id="a_Node000006"><a xlink:title=" ">
<polygon fill="#e0e0e0" stroke="#999999" points="667.47,-19 614.47,-19 614.47,0 667.47,0 667.47,-19"/>
<text text-anchor="middle" x="640.97" y="-7" font-family="Helvetica,sans-Serif" font-size="10.00">cstddef</text>
</a>
</g>
</g>
<!-- Node4&#45;&gt;Node6 -->
<g id="edge5_Node000004_Node000006" class="edge">
<title>Node4&#45;&gt;Node6</title>
<g id="a_edge5_Node000004_Node000006"><a xlink:title=" ">
<path fill="none" stroke="#63b8ff" d="M760.36,-54.99C733.93,-45.14 698.93,-32.1 673.66,-22.68"/>
<polygon fill="#63b8ff" stroke="#63b8ff" points="674.75,-19.35 664.15,-19.14 672.3,-25.91 674.75,-19.35"/>
</a>
</g>
</g>
<!-- Node4&#45;&gt;Node7 -->
<g id="edge6_Node000004_Node000007" class="edge">
<title>Node4&#45;&gt;Node7</title>
<g id="a_edge6_Node000004_Node000007"><a xlink:title=" ">
<path fill="none" stroke="#63b8ff" d="M744.66,-58.13C689.61,-46.91 604.77,-29.62 553.88,-19.25"/>
<polygon fill="#63b8ff" stroke="#63b8ff" points="554.37,-15.77 543.87,-17.21 552.97,-22.63 554.37,-15.77"/>
</a>
</g>
</g>
<!-- Node8 -->
<g id="Node000008" class="node">
<title>Node8</title>
<g id="a_Node000008"><a xlink:title=" ">
<polygon fill="#e0e0e0" stroke="#999999" points="765.97,-19 707.97,-19 707.97,0 765.97,0 765.97,-19"/>
<text text-anchor="middle" x="736.97" y="-7" font-family="Helvetica,sans-Serif" font-size="10.00">memory</text>
</a>
</g>
</g>
<!-- Node4&#45;&gt;Node8 -->
<g id="edge7_Node000004_Node000008" class="edge">
<title>Node4&#45;&gt;Node8</title>
<g id="a_edge7_Node000004_Node000008"><a xlink:title=" ">
<path fill="none" stroke="#63b8ff" d="M783.2,-54.84C774.26,-46.26 762.82,-35.3 753.57,-26.42"/>
<polygon fill="#63b8ff" stroke="#63b8ff" points="755.75,-23.66 746.11,-19.27 750.9,-28.71 755.75,-23.66"/>
</a>
</g>
</g>
<!-- Node9 -->
<g id="Node000009" class="node">
<title>Node9</title>
<g id="a_Node000009"><a xlink:title=" ">
<polygon fill="#e0e0e0" stroke="#999999" points="821.47,-19 784.47,-19 784.47,0 821.47,0 821.47,-19"/>
<text text-anchor="middle" x="802.97" y="-7" font-family="Helvetica,sans-Serif" font-size="10.00">new</text>
</a>
</g>
</g>
<!-- Node4&#45;&gt;Node9 -->
<g id="edge8_Node000004_Node000009" class="edge">
<title>Node4&#45;&gt;Node9</title>
<g id="a_edge8_Node000004_Node000009"><a xlink:title=" ">
<path fill="none" stroke="#63b8ff" d="M799.18,-54.84C799.83,-47.21 800.64,-37.7 801.35,-29.45"/>
<polygon fill="#63b8ff" stroke="#63b8ff" points="804.85,-29.53 802.22,-19.27 797.88,-28.93 804.85,-29.53"/>
</a>
</g>
</g>
<!-- Node4&#45;&gt;Node10 -->
<g id="edge9_Node000004_Node000010" class="edge">
<title>Node4&#45;&gt;Node10</title>
<g id="a_edge9_Node000004_Node000010"><a xlink:title=" ">
<path fill="none" stroke="#63b8ff" d="M817.58,-54.84C829.93,-45.91 845.86,-34.41 858.4,-25.35"/>
<polygon fill="#63b8ff" stroke="#63b8ff" points="860.77,-27.96 866.83,-19.27 856.67,-22.28 860.77,-27.96"/>
</a>
</g>
</g>
<!-- Node11&#45;&gt;Node3 -->
<g id="edge13_Node000011_Node000003" class="edge">
<title>Node11&#45;&gt;Node3</title>
<g id="a_edge13_Node000011_Node000003"><a xlink:title=" ">
<path fill="none" stroke="#63b8ff" d="M860.21,-186.8C847.37,-176.53 830.05,-162.67 816.94,-152.18"/>
<polygon fill="#63b8ff" stroke="#63b8ff" points="819.02,-149.36 809.02,-145.84 814.65,-154.82 819.02,-149.36"/>
</a>
</g>
</g>
<!-- Node11&#45;&gt;Node4 -->
<g id="edge17_Node000011_Node000004" class="edge">
<title>Node11&#45;&gt;Node4</title>
<g id="a_edge17_Node000011_Node000004"><a xlink:title=" ">
<path fill="none" stroke="#63b8ff" d="M882.13,-186.96C886.26,-170.13 890.47,-141.62 878.97,-121 871.58,-107.75 859.07,-97.57 846.06,-89.97"/>
<polygon fill="#63b8ff" stroke="#63b8ff" points="847.5,-86.77 837.04,-85.11 844.18,-92.93 847.5,-86.77"/>
</a>
</g>
</g>
<!-- Node11&#45;&gt;Node10 -->
<g id="edge18_Node000011_Node000010" class="edge">
<title>Node11&#45;&gt;Node10</title>
<g id="a_edge18_Node000011_Node000010"><a xlink:title=" ">
<path fill="none" stroke="#63b8ff" d="M884.52,-186.92C888.72,-177.09 893.78,-163.54 895.97,-151 903.58,-107.39 892.06,-55.57 884.56,-28.7"/>
<polygon fill="#63b8ff" stroke="#63b8ff" points="887.92,-27.71 881.75,-19.1 881.2,-29.68 887.92,-27.71"/>
</a>
</g>
</g>
<!-- Node12 -->
<g id="Node000012" class="node">
<title>Node12</title>
<g id="a_Node000012"><a xlink:href="parameter__pack_8h_source.html" target="_top" xlink:title=" ">
<polygon fill="white" stroke="#666666" points="669.97,-151 527.97,-151 527.97,-121 669.97,-121 669.97,-151"/>
<text text-anchor="start" x="535.97" y="-139" font-family="Helvetica,sans-Serif" font-size="10.00">asyncpp/detail/parameter</text>
<text text-anchor="middle" x="598.97" y="-128" font-family="Helvetica,sans-Serif" font-size="10.00">_pack.h</text>
</a>
</g>
</g>
<!-- Node11&#45;&gt;Node12 -->
<g id="edge14_Node000011_Node000012" class="edge">
<title>Node11&#45;&gt;Node12</title>
<g id="a_edge14_Node000011_Node000012"><a xlink:title=" ">
<path fill="none" stroke="#63b8ff" d="M816.74,-186.95C773.4,-177.01 715.16,-163.65 669.82,-153.25"/>
<polygon fill="#63b8ff" stroke="#63b8ff" points="670.58,-149.84 660.05,-151.01 669.02,-156.66 670.58,-149.84"/>
</a>
</g>
</g>
<!-- Node12&#45;&gt;Node6 -->
<g id="edge15_Node000012_Node000006" class="edge">
<title>Node12&#45;&gt;Node6</title>
<g id="a_edge15_Node000012_Node000006"><a xlink:title=" ">
<path fill="none" stroke="#63b8ff" d="M603.79,-120.72C611.44,-98.02 626.39,-53.72 634.81,-28.75"/>
<polygon fill="#63b8ff" stroke="#63b8ff" points="638.2,-29.66 638.08,-19.07 631.56,-27.43 638.2,-29.66"/>
</a>
</g>
</g>
<!-- Node12&#45;&gt;Node13 -->
<g id="edge16_Node000012_Node000013" class="edge">
<title>Node12&#45;&gt;Node13</title>
<g id="a_edge16_Node000012_Node000013"><a xlink:title=" ">
<path fill="none" stroke="#63b8ff" d="M547.62,-120.95C501.8,-108.42 436.12,-90.46 397.28,-79.84"/>
<polygon fill="#63b8ff" stroke="#63b8ff" points="398.11,-76.44 387.54,-77.17 396.26,-83.19 398.11,-76.44"/>
</a>
</g>
</g>
<!-- Node14&#45;&gt;Node7 -->
<g id="edge22_Node000014_Node000007" class="edge">
<title>Node14&#45;&gt;Node7</title>
<g id="a_edge22_Node000014_Node000007"><a xlink:title=" ">
<path fill="none" stroke="#63b8ff" d="M455.55,-192.35C448.9,-182.79 438.93,-166.69 434.97,-151 431.7,-138.07 431.01,-133.73 434.97,-121 446.75,-83.09 476.55,-46.66 495.14,-26.56"/>
<polygon fill="#63b8ff" stroke="#63b8ff" points="497.76,-28.88 502.11,-19.21 492.69,-24.06 497.76,-28.88"/>
</a>
</g>
</g>
<!-- Node14&#45;&gt;Node13 -->
<g id="edge23_Node000014_Node000013" class="edge">
<title>Node14&#45;&gt;Node13</title>
<g id="a_edge23_Node000014_Node000013"><a xlink:title=" ">
<path fill="none" stroke="#63b8ff" d="M448.56,-192.44C435.31,-183.44 415.18,-168.21 401.97,-151 387.45,-132.08 376.89,-106.54 370.86,-89.46"/>
<polygon fill="#63b8ff" stroke="#63b8ff" points="374.05,-87.98 367.55,-79.61 367.41,-90.21 374.05,-87.98"/>
</a>
</g>
</g>
<!-- Node15 -->
<g id="Node000015" class="node">
<title>Node15</title>
<g id="a_Node000015"><a xlink:title=" ">
<polygon fill="#e0e0e0" stroke="#999999" points="509.47,-145.5 444.47,-145.5 444.47,-126.5 509.47,-126.5 509.47,-145.5"/>
<text text-anchor="middle" x="476.97" y="-133.5" font-family="Helvetica,sans-Serif" font-size="10.00">exception</text>
</a>
</g>
</g>
<!-- Node14&#45;&gt;Node15 -->
<g id="edge21_Node000014_Node000015" class="edge">
<title>Node14&#45;&gt;Node15</title>
<g id="a_edge21_Node000014_Node000015"><a xlink:title=" ">
<path fill="none" stroke="#63b8ff" d="M463.99,-192.37C466.17,-183.07 469.71,-167.98 472.54,-155.9"/>
<polygon fill="#63b8ff" stroke="#63b8ff" points="476.01,-156.44 474.88,-145.91 469.19,-154.84 476.01,-156.44"/>
</a>
</g>
</g>
<!-- Node17&#45;&gt;Node16 -->
<g id="edge29_Node000017_Node000016" class="edge">
<title>Node17&#45;&gt;Node16</title>
<g id="a_edge29_Node000017_Node000016"><a xlink:title=" ">
<path fill="none" stroke="#63b8ff" d="M178.05,-252.99C202.64,-243.07 243.5,-226.59 271.53,-215.28"/>
<polygon fill="#63b8ff" stroke="#63b8ff" points="272.89,-218.5 280.86,-211.52 270.27,-212.01 272.89,-218.5"/>
</a>
</g>
</g>
<!-- Node18 -->
<g id="Node000018" class="node">
<title>Node18</title>
<g id="a_Node000018"><a xlink:href="dispatcher_8h_source.html" target="_top" xlink:title=" ">
<polygon fill="white" stroke="#666666" points="210.47,-79.5 91.47,-79.5 91.47,-60.5 210.47,-60.5 210.47,-79.5"/>
<text text-anchor="middle" x="150.97" y="-67.5" font-family="Helvetica,sans-Serif" font-size="10.00">asyncpp/dispatcher.h</text>
</a>
</g>
</g>
<!-- Node17&#45;&gt;Node18 -->
<g id="edge27_Node000017_Node000018" class="edge">
<title>Node17&#45;&gt;Node18</title>
<g id="a_edge27_Node000017_Node000018"><a xlink:title=" ">
<path fill="none" stroke="#63b8ff" d="M77.82,-256.01C52.02,-250 25.94,-238.52 9.97,-217 -30.26,-162.79 68.68,-107.95 121.03,-83.79"/>
<polygon fill="#63b8ff" stroke="#63b8ff" points="122.54,-86.94 130.22,-79.64 119.66,-80.56 122.54,-86.94"/>
</a>
</g>
</g>
<!-- Node19 -->
<g id="Node000019" class="node">
<title>Node19</title>
<g id="a_Node000019"><a xlink:title=" ">
<polygon fill="#e0e0e0" stroke="#999999" points="258.47,-211.5 151.47,-211.5 151.47,-192.5 258.47,-192.5 258.47,-211.5"/>
<text text-anchor="middle" x="204.97" y="-199.5" font-family="Helvetica,sans-Serif" font-size="10.00">condition_variable</text>
</a>
</g>
</g>
<!-- Node17&#45;&gt;Node19 -->
<g id="edge30_Node000017_Node000019" class="edge">
<title>Node17&#45;&gt;Node19</title>
<g id="a_edge30_Node000017_Node000019"><a xlink:title=" ">
<path fill="none" stroke="#63b8ff" d="M164.05,-252.87C171.21,-244.14 182.46,-230.43 191.35,-219.59"/>
<polygon fill="#63b8ff" stroke="#63b8ff" points="194.22,-221.62 197.86,-211.67 188.81,-217.18 194.22,-221.62"/>
</a>
</g>
</g>
<!-- Node20 -->
<g id="Node000020" class="node">
<title>Node20</title>
<g id="a_Node000020"><a xlink:title=" ">
<polygon fill="#e0e0e0" stroke="#999999" points="66.47,-211.5 19.47,-211.5 19.47,-192.5 66.47,-192.5 66.47,-211.5"/>
<text text-anchor="middle" x="42.97" y="-199.5" font-family="Helvetica,sans-Serif" font-size="10.00">deque</text>
</a>
</g>
</g>
<!-- Node17&#45;&gt;Node20 -->
<g id="edge31_Node000017_Node000020" class="edge">
<title>Node17&#45;&gt;Node20</title>
<g id="a_edge31_Node000017_Node000020"><a xlink:title=" ">
<path fill="none" stroke="#63b8ff" d="M140.15,-252.87C121.37,-243.23 90.76,-227.53 68.91,-216.31"/>
<polygon fill="#63b8ff" stroke="#63b8ff" points="70.35,-213.12 59.86,-211.67 67.16,-219.35 70.35,-213.12"/>
</a>
</g>
</g>
<!-- Node21 -->
<g id="Node000021" class="node">
<title>Node21</title>
<g id="a_Node000021"><a xlink:title=" ">
<polygon fill="#e0e0e0" stroke="#999999" points="132.97,-211.5 84.97,-211.5 84.97,-192.5 132.97,-192.5 132.97,-211.5"/>
<text text-anchor="middle" x="108.97" y="-199.5" font-family="Helvetica,sans-Serif" font-size="10.00">mutex</text>
</a>
</g>
</g>
<!-- Node17&#45;&gt;Node21 -->
<g id="edge32_Node000017_Node000021" class="edge">
<title>Node17&#45;&gt;Node21</title>
<g id="a_edge32_Node000017_Node000021"><a xlink:title=" ">
<path fill="none" stroke="#63b8ff" d="M149.88,-252.87C142.72,-244.14 131.47,-230.43 122.58,-219.59"/>
<polygon fill="#63b8ff" stroke="#63b8ff" points="125.13,-217.18 116.08,-211.67 119.72,-221.62 125.13,-217.18"/>
</a>
</g>
</g>
<!-- Node18&#45;&gt;Node7 -->
<g id="edge28_Node000018_Node000007" class="edge">
<title>Node18&#45;&gt;Node7</title>
<g id="a_edge28_Node000018_Node000007"><a xlink:title=" ">
<path fill="none" stroke="#63b8ff" d="M203.31,-60.49C274.95,-48.85 402.16,-28.18 468.33,-17.43"/>
<polygon fill="#63b8ff" stroke="#63b8ff" points="469.09,-20.85 478.4,-15.79 467.97,-13.94 469.09,-20.85"/>
</a>
</g>
</g>
<!-- Node22&#45;&gt;Node4 -->
<g id="edge35_Node000022_Node000004" class="edge">
<title>Node22&#45;&gt;Node4</title>
<g id="a_edge35_Node000022_Node000004"><a xlink:title=" ">
<path fill="none" stroke="#63b8ff" d="M933.12,-252.97C939.74,-244.48 949.12,-230.75 952.97,-217 956.56,-204.16 957.62,-199.5 952.97,-187 935.19,-139.23 884.09,-107.35 845.37,-89.3"/>
<polygon fill="#63b8ff" stroke="#63b8ff" points="846.38,-85.91 835.83,-85 843.51,-92.3 846.38,-85.91"/>
</a>
</g>
</g>
<!-- Node22&#45;&gt;Node5 -->
<g id="edge36_Node000022_Node000005" class="edge">
<title>Node22&#45;&gt;Node5</title>
<g id="a_edge36_Node000022_Node000005"><a xlink:title=" ">
<path fill="none" stroke="#63b8ff" d="M937.88,-252.74C947.82,-244.67 961.39,-231.75 967.97,-217 996.5,-152.98 991.45,-66.79 987.41,-29.26"/>
<polygon fill="#63b8ff" stroke="#63b8ff" points="990.87,-28.78 986.22,-19.26 983.92,-29.6 990.87,-28.78"/>
</a>
</g>
</g>
<!-- Node22&#45;&gt;Node11 -->
<g id="edge34_Node000022_Node000011" class="edge">
<title>Node22&#45;&gt;Node11</title>
<g id="a_edge34_Node000022_Node000011"><a xlink:title=" ">
<path fill="none" stroke="#63b8ff" d="M918.88,-252.87C912.85,-245.52 903.92,-234.63 895.94,-224.91"/>
<polygon fill="#63b8ff" stroke="#63b8ff" points="898.6,-222.63 889.55,-217.11 893.19,-227.07 898.6,-222.63"/>
</a>
</g>
</g>
<!-- Node22&#45;&gt;Node15 -->
<g id="edge37_Node000022_Node000015" class="edge">
<title>Node22&#45;&gt;Node15</title>
<g id="a_edge37_Node000022_Node000015"><a xlink:title=" ">
<path fill="none" stroke="#63b8ff" d="M892.01,-252.98C821.94,-235.23 656.34,-192.51 518.97,-151 516.52,-150.26 514,-149.48 511.47,-148.67"/>
<polygon fill="#63b8ff" stroke="#63b8ff" points="512.36,-145.28 501.77,-145.53 510.2,-151.94 512.36,-145.28"/>
</a>
</g>
</g>
<!-- Node23 -->
<g id="Node000023" class="node">
<title>Node23</title>
<g id="a_Node000023"><a xlink:title=" ">
<polygon fill="#e0e0e0" stroke="#999999" points="1091.47,-211.5 1040.47,-211.5 1040.47,-192.5 1091.47,-192.5 1091.47,-211.5"/>
<text text-anchor="middle" x="1065.97" y="-199.5" font-family="Helvetica,sans-Serif" font-size="10.00">variant</text>
</a>
</g>
</g>
<!-- Node22&#45;&gt;Node23 -->
<g id="edge38_Node000022_Node000023" class="edge">
<title>Node22&#45;&gt;Node23</title>
<g id="a_edge38_Node000022_Node000023"><a xlink:title=" ">
<path fill="none" stroke="#63b8ff" d="M946.32,-252.99C969.96,-243.12 1009.17,-226.73 1036.22,-215.43"/>
<polygon fill="#63b8ff" stroke="#63b8ff" points="1037.71,-218.6 1045.59,-211.52 1035.01,-212.14 1037.71,-218.6"/>
</a>
</g>
</g>
</g>
</svg>
