<?xml version="1.0" encoding="UTF-8" standalone="no"?>
<!DOCTYPE svg PUBLIC "-//W3C//DTD SVG 1.1//EN"
 "http://www.w3.org/Graphics/SVG/1.1/DTD/svg11.dtd">
<!-- Generated by graphviz version 2.43.0 (0)
 -->
<!-- Title: asyncpp::dispatcher Pages: 1 -->
<svg width="407pt" height="82pt"
 viewBox="0.00 0.00 406.50 82.00" xmlns="http://www.w3.org/2000/svg" xmlns:xlink="http://www.w3.org/1999/xlink">
<g id="graph0" class="graph" transform="scale(1 1) rotate(0) translate(4 78)">
<title>asyncpp::dispatcher</title>
<!-- Node1 -->
<g id="Node000001" class="node">
<title>Node1</title>
<g id="a_Node000001"><a xlink:title="Basic dispatcher interface class.">
<polygon fill="#999999" stroke="#666666" points="288,-74 174,-74 174,-55 288,-55 288,-74"/>
<text text-anchor="middle" x="231" y="-62" font-family="Helvetica,sans-Serif" font-size="10.00">asyncpp::dispatcher</text>
</a>
</g>
</g>
<!-- Node2 -->
<g id="Node000002" class="node">
<title>Node2</title>
<g id="a_Node000002"><a xlink:href="classasyncpp_1_1simple__dispatcher.html" target="_top" xlink:title="A very basic dispatcher that runs in a single thread until manually stopped.">
<polygon fill="white" stroke="#666666" points="152,-19 0,-19 0,0 152,0 152,-19"/>
<text text-anchor="middle" x="76" y="-7" font-family="Helvetica,sans-Serif" font-size="10.00">asyncpp::simple_dispatcher</text>
</a>
</g>
</g>
<!-- Node1&#45;&gt;Node2 -->
<g id="edge1_Node000001_Node000002" class="edge">
<title>Node1&#45;&gt;Node2</title>
<g id="a_edge1_Node000001_Node000002"><a xlink:title=" ">
<path fill="none" stroke="#63b8ff" d="M196.4,-51.67C167.5,-41.79 126.97,-27.93 101.1,-19.08"/>
<polygon fill="#63b8ff" stroke="#63b8ff" points="195.5,-55.06 206.1,-54.98 197.77,-48.44 195.5,-55.06"/>
</a>
</g>
</g>
<!-- Node3 -->
<g id="Node000003" class="node">
<title>Node3</title>
<g id="a_Node000003"><a xlink:href="classasyncpp_1_1thread__pool.html" target="_top" xlink:title="A basic thread pool implementation for usage as a dispatcher.">
<polygon fill="white" stroke="#666666" points="291.5,-19 170.5,-19 170.5,0 291.5,0 291.5,-19"/>
<text text-anchor="middle" x="231" y="-7" font-family="Helvetica,sans-Serif" font-size="10.00">asyncpp::thread_pool</text>
</a>
</g>
</g>
<!-- Node1&#45;&gt;Node3 -->
<g id="edge2_Node000001_Node000003" class="edge">
<title>Node1&#45;&gt;Node3</title>
<g id="a_edge2_Node000001_Node000003"><a xlink:title=" ">
<path fill="none" stroke="#63b8ff" d="M231,-44.66C231,-35.93 231,-25.99 231,-19.09"/>
<polygon fill="#63b8ff" stroke="#63b8ff" points="227.5,-44.75 231,-54.75 234.5,-44.75 227.5,-44.75"/>
</a>
</g>
</g>
<!-- Node4 -->
<g id="Node000004" class="node">
<title>Node4</title>
<g id="a_Node000004"><a xlink:href="classasyncpp_1_1timer.html" target="_top" xlink:title="A dispatcher that provides a way to schedule coroutines based on time.">
<polygon fill="white" stroke="#666666" points="398.5,-19 309.5,-19 309.5,0 398.5,0 398.5,-19"/>
<text text-anchor="middle" x="354" y="-7" font-family="Helvetica,sans-Serif" font-size="10.00">asyncpp::timer</text>
</a>
</g>
</g>
<!-- Node1&#45;&gt;Node4 -->
<g id="edge3_Node000001_Node000004" class="edge">
<title>Node1&#45;&gt;Node4</title>
<g id="a_edge3_Node000001_Node000004"><a xlink:title=" ">
<path fill="none" stroke="#63b8ff" d="M260.25,-50.9C282.97,-41.11 313.87,-27.79 333.88,-19.17"/>
<polygon fill="#63b8ff" stroke="#63b8ff" points="258.56,-47.81 250.76,-54.98 261.33,-54.24 258.56,-47.81"/>
</a>
</g>
</g>
</g>
</svg>
