<?xml version="1.0" encoding="UTF-8" standalone="no"?>
<!-- Created with Inkscape (http://www.inkscape.org/) -->

<svg
   xmlns:dc="http://purl.org/dc/elements/1.1/"
   xmlns:cc="http://creativecommons.org/ns#"
   xmlns:rdf="http://www.w3.org/1999/02/22-rdf-syntax-ns#"
   xmlns:svg="http://www.w3.org/2000/svg"
   xmlns="http://www.w3.org/2000/svg"
   xmlns:sodipodi="http://sodipodi.sourceforge.net/DTD/sodipodi-0.dtd"
   xmlns:inkscape="http://www.inkscape.org/namespaces/inkscape"
   width="126.96336mm"
   height="58.91608mm"
   viewBox="0 0 126.96336 58.91608"
   version="1.1"
   id="svg8"
   inkscape:version="0.92.5 (2060ec1f9f, 2020-04-08)"
   sodipodi:docname="logo.svg">
  <defs
     id="defs2" />
  <sodipodi:namedview
     id="base"
     pagecolor="#ffffff"
     bordercolor="#666666"
     borderopacity="1.0"
     inkscape:pageopacity="0.0"
     inkscape:pageshadow="2"
     inkscape:zoom="1.4"
     inkscape:cx="178.12819"
     inkscape:cy="-41.345427"
     inkscape:document-units="mm"
     inkscape:current-layer="g4062"
     showgrid="false"
     inkscape:window-width="1920"
     inkscape:window-height="1049"
     inkscape:window-x="3840"
     inkscape:window-y="0"
     inkscape:window-maximized="1" />
  <metadata
     id="metadata5">
    <rdf:RDF>
      <cc:Work
         rdf:about="">
        <dc:format>image/svg+xml</dc:format>
        <dc:type
           rdf:resource="http://purl.org/dc/dcmitype/StillImage" />
        <dc:title></dc:title>
      </cc:Work>
    </rdf:RDF>
  </metadata>
  <g
     inkscape:label="Ebene 1"
     inkscape:groupmode="layer"
     id="layer1"
     transform="translate(-35.098119,-11.019538)">
    <path
       style="fill:#000000;stroke-width:0.26458332"
       d=""
       id="path3778"
       inkscape:connector-curvature="0" />
    <g
       id="g3914"
       transform="translate(-1.889881,80.508929)" />
    <g
       id="g4062">
      <path
         style="fill:#f85b44;stroke-width:0.25064853"
         d="m 105.28518,15.285648 c -4.592,4.5873 -4.86083,5.03164 -3.75941,6.21387 0.95201,1.02186 1.69167,0.74095 3.88117,-1.47402 2.30562,-2.33245 2.76104,-2.64635 3.25029,-2.24032 0.4008,0.33263 0.30488,1.2834 -0.39998,3.96446 -0.64281,2.44506 -1.44044,3.95348 -2.98303,5.64131 -1.45521,1.59225 -3.06422,2.45679 -5.942219,3.19285 -1.75924,0.44995 -2.839994,0.48763 -13.98633,0.48763 H 73.265915 l -0.687707,0.63734 c -0.550079,0.5098 -0.653812,0.77313 -0.518372,1.3159 0.408377,1.63646 -0.253686,1.55584 12.776747,1.55584 12.517598,0 12.418398,-0.009 12.418398,1.17804 0,0.54621 0.0914,0.57649 1.74013,0.57649 h 1.740129 l 0.077,-1.06525 0.0771,-1.06525 2.43461,-1.17659 c 4.73212,-2.28692 7.74913,-6.29521 8.64178,-11.48117 0.40105,-2.33001 0.6543,-3.00778 1.12384,-3.00778 0.12816,0 1.0672,0.78954 2.08674,1.75454 1.44211,1.36497 2.01953,1.75454 2.60054,1.75454 0.82862,0 1.78581,-0.96969 1.78581,-1.80915 0,-0.29547 -1.6992,-2.21224 -4.30287,-4.85384 -3.53481,-3.58631 -4.42792,-4.36555 -5.00351,-4.36555 -0.57239,0 -1.4824,0.78094 -4.97114,4.26611 z m 23.36353,3.79888 c -4.62913,4.6071 -4.8858,5.02279 -3.81263,6.17471 0.96941,1.04054 1.78969,0.75185 3.78267,-1.3313 1.76069,-1.84036 2.59079,-2.26913 2.88892,-1.49222 0.0819,0.2132 0.0191,1.39843 -0.13932,2.63384 -0.42738,3.33258 -1.81987,6.91338 -3.87278,9.95885 l -0.89328,1.32516 2.29006,-0.0719 2.29007,-0.0719 1.17711,-2.38116 c 1.24096,-2.51033 2.32759,-6.2965 2.72551,-9.49657 0.13112,-1.05444 0.39588,-2.01741 0.61491,-2.23642 0.34574,-0.34575 0.58735,-0.19097 2.38978,1.53106 1.10282,1.05364 2.30166,1.99013 2.66409,2.08109 0.89494,0.22461 1.96926,-0.5843 2.06798,-1.55709 0.0657,-0.64653 -0.41893,-1.22603 -4.2231,-5.05084 -3.4122,-3.43072 -4.43406,-4.3203 -4.96175,-4.31945 -0.52464,7.5e-4 -1.57483,0.90702 -4.98824,4.30418 z m -56.029028,1.94298 c -0.831029,0.98762 -0.844945,1.30239 -0.09607,2.17302 l 0.584144,0.67911 4.867464,0.19989 c 7.316812,0.30048 12.499576,1.32888 15.14003,3.0042 1.206192,0.7653 1.321113,0.78813 3.336068,0.66241 1.147763,-0.0716 2.164713,-0.20928 2.259863,-0.30595 0.2357,-0.23944 -2.451783,-2.71349 -3.816072,-3.51302 -3.436612,-2.01398 -9.489265,-3.23709 -17.575766,-3.55168 l -4.019449,-0.15637 z m -0.03136,19.33715 c -0.802827,0.9541 -0.809288,1.27019 -0.04415,2.15997 l 0.604768,0.70325 12.223761,0.0697 c 7.518461,0.0429 12.33785,0.16438 12.52014,0.31568 0.16302,0.13529 0.66664,1.33586 1.11916,2.66796 l 0.82276,2.42198 -0.52094,0.42182 c -1.34503,1.08914 -15.160916,1.8408 -22.849196,1.24311 -3.022419,-0.23495 -3.137539,-0.22561 -3.697071,0.30003 -0.729371,0.68521 -0.770353,1.95748 -0.08308,2.57945 0.705441,0.63841 3.321606,0.85426 10.534126,0.86912 6.927932,0.0143 13.02271,-0.44921 17.92139,-1.36287 0.83205,-0.15519 1.09448,-0.0256 1.67829,0.82892 0.78264,1.14551 4.43198,4.2055 6.37038,5.34161 3.08827,1.81005 6.2466,2.70974 11.62398,3.31122 3.42867,0.38351 3.46527,0.53842 0.77788,3.29169 -2.20988,2.26405 -2.40528,2.7868 -1.41264,3.77942 1.21506,1.21506 1.60696,0.98912 6.19825,-3.57349 3.87013,-3.84596 4.21506,-4.26133 4.21506,-5.07591 0,-0.81412 -0.34695,-1.23289 -4.21319,-5.08527 -4.4584,-4.44241 -4.8955,-4.71515 -6.02494,-3.75944 -0.28511,0.24125 -0.5919,0.74911 -0.68174,1.12859 -0.1446,0.61078 0.0582,0.91759 1.76638,2.67296 2.24622,2.30821 2.36907,2.85914 0.66488,2.98168 -4.38189,0.31513 -10.50703,-1.81247 -14.29618,-4.96584 -2.75887,-2.29596 -6.39407,-8.86991 -5.50031,-9.94683 0.21347,-0.25721 1.69702,-0.32995 6.72932,-0.32995 5.52532,0 6.50194,0.056 6.77795,0.38855 0.26511,0.31944 0.25541,0.45561 -0.0545,0.76553 -0.41039,0.41038 -6.21941,2.65905 -8.07852,3.12717 -0.63327,0.15947 -1.1514,0.36499 -1.1514,0.45672 0,0.0917 0.61606,0.7752 1.36901,1.5188 l 1.36902,1.35202 1.95309,-0.66135 c 4.46453,-1.51175 9.6067,-4.06963 12.50263,-6.21923 l 1.02692,-0.76226 3.51476,0.01 c 5.84655,0.0161 10.7072,1.01393 14.80419,3.03907 4.20098,2.07655 6.51773,4.81965 7.30905,8.65413 0.7023,3.40311 -0.0694,3.6844 -2.73604,0.99717 -1.43555,-1.44668 -2.03621,-1.88811 -2.56915,-1.88811 -0.93393,0 -1.69815,0.81019 -1.69815,1.80029 0,0.69798 0.52748,1.32463 4.21959,5.01297 3.50678,3.50319 4.3417,4.21527 4.94237,4.21527 0.60161,0 2.33194,-1.77268 5.08605,-4.23667 2.75412,-2.46399 4.01631,-3.09707 4.34313,-4.00632 0.32682,-0.90925 -0.24666,-1.90813 -0.7249,-2.28284 -0.81614,-0.63954 -1.71334,-0.6671 -3.83717,1.39969 -2.27509,2.21399 -2.75878,2.30928 -3.05642,0.60211 -0.80501,-4.61731 -1.67353,-6.6267 -3.97188,-9.18919 -1.49428,-1.66602 -3.81178,-3.46817 -5.74657,-4.46868 -1.23211,-0.63715 -5.66272,-2.04652 -7.77105,-2.47196 -4.2038,-0.84827 -6.67256,-0.91228 -35.18395,-0.91228 H 73.23722 Z"
         id="path4066"
         inkscape:connector-curvature="0"
         sodipodi:nodetypes="ccsccccscccssscccscscsssscccccccscccccccccsccccccsccccsccccccccccccccccsssccssccccscscccscccscccscsscszzcscsccscc" />
      <path
         style="fill:#838582;stroke-width:0.26458332"
         d="m 59.11516,67.835658 c -0.934904,-1.02521 -0.631321,-0.7635 -1.47275,-3.28917 -0.455788,-1.36811 -1.04168,-2.68022 -1.301981,-2.91579 -0.260302,-0.23557 -1.020969,-0.61493 -1.690371,-0.84301 l -1.217096,-0.41471 -2.488926,1.34174 c -1.368909,0.73796 -2.775877,1.3413 -3.126596,1.34075 -0.35072,-5.4e-4 -1.05439,-0.25373 -1.563713,-0.56263 -1.417481,-0.85971 -4.525925,-4.19494 -5.082625,-5.45344 -0.550184,-1.24378 -0.639649,-0.88328 1.380846,-5.56412 0.594175,-1.37651 0.595743,-1.40869 0.1201,-2.46347 -0.553187,-1.22675 -0.789335,-1.38241 -3.228245,-2.12794 -2.47966,-0.75798 -3.017539,-0.73988 -3.650441,-1.84845 -0.632902,-1.10857 -0.727924,-2.97356 -0.687078,-4.99721 0.04084,-2.02364 -0.130822,-3.2959 0.367233,-4.02909 0.498054,-0.73318 0.802519,-1.06795 1.197862,-1.22241 0.395343,-0.15445 1.710585,-0.65583 2.922759,-1.11417 2.088847,-0.78982 2.230025,-0.89417 2.703154,-1.99794 l 0.4992,-1.16458 -1.314091,-2.68718 c -0.72275,-1.47795 -1.314091,-3.01336 -1.314091,-3.41202 0,-1.4035 4.230204,-6.1816 6.202253,-7.00558 1.028797,-0.42986 1.10412,-0.41153 4.560611,1.10956 2.330224,1.02546 2.923934,1.03721 4.138437,0.0819 0.511339,-0.40222 0.923246,-1.25537 1.529615,-3.16817 0.456408,-1.43975 1.03972,-2.80767 1.29625,-3.03983 1.010517,-0.9145 8.205176,-1.2447 9.69917,-0.44514 0.333248,0.17835 0.891106,1.09363 1.356812,2.22613 1.3135,3.19416 1.322158,2.97887 -0.173863,4.32393 -0.730996,0.65722 -1.402964,1.42773 -1.493263,1.71224 -0.262586,0.82734 -0.580927,0.60778 -1.072195,-0.73948 -0.25205,-0.69122 -0.67192,-1.76279 -0.933048,-2.38125 l -0.474774,-1.12448 h -1.551807 c -0.853496,0 -1.741438,0.14883 -1.973208,0.33073 -0.23177,0.1819 -0.749839,1.35571 -1.151265,2.60845 -0.401425,1.25275 -0.862061,2.45851 -1.023633,2.67948 -0.161573,0.22096 -1.51344,0.96083 -3.004149,1.64414 -3.089861,1.41634 -3.054271,1.41803 -6.508609,-0.3091 l -1.821457,-0.91071 -1.287397,1.26804 c -0.708068,0.69742 -1.287397,1.397 -1.287397,1.55463 0,0.15763 0.535782,1.32783 1.190625,2.60045 0.654844,1.27262 1.190625,2.56738 1.190625,2.87725 0,0.30987 -0.366171,1.40633 -0.813714,2.43658 -1.667993,3.83975 -1.415332,3.57045 -4.345661,4.63182 l -2.645833,0.95833 v 1.97798 1.97797 l 2.645833,0.8707 c 1.455209,0.47888 2.805312,1.02956 3.00023,1.22374 0.602331,0.60004 2.423729,4.97818 2.423729,5.82598 0,0.44129 -0.498718,1.85179 -1.108262,3.13443 l -1.108261,2.33208 1.203886,1.20389 1.203886,1.20389 2.563056,-1.34892 c 1.40968,-0.7419 2.707865,-1.34891 2.884856,-1.34891 0.17699,0 0.796287,0.25486 1.376215,0.56636 0.579929,0.3115 1.87337,0.84538 2.874315,1.18641 1.000945,0.34103 1.98404,0.75628 2.184656,0.92278 0.200616,0.16649 0.660032,1.27077 1.020925,2.45396 0.899461,2.94887 1.207238,3.33715 2.645214,3.33715 1.962962,0 2.358353,-0.28598 2.908776,-2.10391 0.270695,-0.89404 0.596628,-1.69009 0.724294,-1.76899 0.127667,-0.0789 0.798169,0.37327 1.490007,1.00483 0.691835,0.63155 1.459108,1.26734 1.705049,1.41286 0.413829,0.24486 0.398272,0.42238 -0.208722,2.38125 -0.998024,2.059 -1.358368,2.56149 -2.087925,3.13876 -0.729556,0.57727 -7.183457,1.50776 -8.998032,-0.0794 z m 1.161484,-15.5021 c -5.926067,-1.6419 -9.543158,-6.26697 -9.616116,-12.29585 -0.0665,-5.4954 3.093612,-10.35118 7.909001,-12.15285 3.605569,-1.34902 5.911833,-1.15065 7.38039,-0.57738 l 2.298332,2.22375 -2.415357,2.11018 c -4.543629,-0.77339 -7.947972,0.85372 -9.976031,4.76805 -0.601957,1.16182 -0.71463,1.71302 -0.71463,3.49596 0,1.77016 0.11342,2.33323 0.692848,3.43958 0.929473,1.77473 2.654451,3.39355 4.526443,4.24788 1.3441,0.61342 1.781816,0.68623 3.439584,0.57218 1.044721,-0.0719 2.141696,-0.2107 2.437723,-0.30849 0.420145,-0.13879 0.730398,0.0613 1.414158,0.91217 l 0.875927,1.08998 -0.718405,1.03666 c -0.395123,0.57016 -0.883142,1.17338 -1.08449,1.34048 -0.596045,0.49468 -4.787424,0.55817 -6.449377,0.0977 z"
         id="path4064"
         inkscape:connector-curvature="0"
         sodipodi:nodetypes="cscccccccscczzzcsccsscccsccscccccsscccsccssssccccccscccccsssccsccccczccccccccscccccccccc" />
    </g>
  </g>
</svg>
