<?xml version="1.0" encoding="UTF-8" standalone="no"?>
<!DOCTYPE svg PUBLIC "-//W3C//DTD SVG 1.1//EN"
 "http://www.w3.org/Graphics/SVG/1.1/DTD/svg11.dtd">
<!-- Generated by graphviz version 2.43.0 (0)
 -->
<!-- Title: asyncpp/detail/std_import.h Pages: 1 -->
<svg width="1178pt" height="269pt"
 viewBox="0.00 0.00 1178.00 269.00" xmlns="http://www.w3.org/2000/svg" xmlns:xlink="http://www.w3.org/1999/xlink">
<g id="graph0" class="graph" transform="scale(1 1) rotate(0) translate(4 265)">
<title>asyncpp/detail/std_import.h</title>
<!-- Node1 -->
<g id="Node000001" class="node">
<title>Node1</title>
<g id="a_Node000001"><a xlink:title="Provides a consistent import interface for coroutine, experimental/coroutine or a best effort fallbac...">
<polygon fill="#999999" stroke="#666666" points="591.5,-261 485.5,-261 485.5,-231 591.5,-231 591.5,-261"/>
<text text-anchor="start" x="493.5" y="-249" font-family="Helvetica,sans-Serif" font-size="10.00">asyncpp/detail/std</text>
<text text-anchor="middle" x="538.5" y="-238" font-family="Helvetica,sans-Serif" font-size="10.00">_import.h</text>
</a>
</g>
</g>
<!-- Node2 -->
<g id="Node000002" class="node">
<title>Node2</title>
<g id="a_Node000002"><a xlink:href="async__generator_8h_source.html" target="_top" xlink:title=" ">
<polygon fill="white" stroke="#666666" points="149,-74 0,-74 0,-55 149,-55 149,-74"/>
<text text-anchor="middle" x="74.5" y="-62" font-family="Helvetica,sans-Serif" font-size="10.00">asyncpp/async_generator.h</text>
</a>
</g>
</g>
<!-- Node1&#45;&gt;Node2 -->
<g id="edge1_Node000001_Node000002" class="edge">
<title>Node1&#45;&gt;Node2</title>
<g id="a_edge1_Node000001_Node000002"><a xlink:title=" ">
<path fill="none" stroke="#63b8ff" d="M475.01,-242.77C370.37,-238.25 166.88,-225.73 102.5,-195 71.02,-179.97 60,-172.17 46.5,-140 36.66,-116.56 55.43,-88.33 66.77,-74.3"/>
<polygon fill="#63b8ff" stroke="#63b8ff" points="474.98,-246.27 485.12,-243.19 475.28,-239.28 474.98,-246.27"/>
</a>
</g>
</g>
<!-- Node3 -->
<g id="Node000003" class="node">
<title>Node3</title>
<g id="a_Node000003"><a xlink:href="channel_8h_source.html" target="_top" xlink:title=" ">
<polygon fill="white" stroke="#666666" points="172,-134.5 65,-134.5 65,-115.5 172,-115.5 172,-134.5"/>
<text text-anchor="middle" x="118.5" y="-122.5" font-family="Helvetica,sans-Serif" font-size="10.00">asyncpp/channel.h</text>
</a>
</g>
</g>
<!-- Node1&#45;&gt;Node3 -->
<g id="edge2_Node000001_Node000003" class="edge">
<title>Node1&#45;&gt;Node3</title>
<g id="a_edge2_Node000001_Node000003"><a xlink:title=" ">
<path fill="none" stroke="#63b8ff" d="M475.35,-241.89C385.12,-236.52 224.68,-223.25 174.5,-195 148.96,-180.62 130.48,-149.58 122.65,-134.53"/>
<polygon fill="#63b8ff" stroke="#63b8ff" points="475.27,-245.39 485.45,-242.48 475.67,-238.4 475.27,-245.39"/>
</a>
</g>
</g>
<!-- Node4 -->
<g id="Node000004" class="node">
<title>Node4</title>
<g id="a_Node000004"><a xlink:href="defer_8h_source.html" target="_top" xlink:title=" ">
<polygon fill="white" stroke="#666666" points="360.5,-134.5 266.5,-134.5 266.5,-115.5 360.5,-115.5 360.5,-134.5"/>
<text text-anchor="middle" x="313.5" y="-122.5" font-family="Helvetica,sans-Serif" font-size="10.00">asyncpp/defer.h</text>
</a>
</g>
</g>
<!-- Node1&#45;&gt;Node4 -->
<g id="edge3_Node000001_Node000004" class="edge">
<title>Node1&#45;&gt;Node4</title>
<g id="a_edge3_Node000001_Node000004"><a xlink:title=" ">
<path fill="none" stroke="#63b8ff" d="M502.72,-226.08C453.17,-199.87 365.7,-153.61 329.69,-134.56"/>
<polygon fill="#63b8ff" stroke="#63b8ff" points="501.33,-229.3 511.81,-230.88 504.6,-223.11 501.33,-229.3"/>
</a>
</g>
</g>
<!-- Node5 -->
<g id="Node000005" class="node">
<title>Node5</title>
<g id="a_Node000005"><a xlink:href="concepts_8h_source.html" target="_top" xlink:title=" ">
<polygon fill="white" stroke="#666666" points="327,-195 184,-195 184,-176 327,-176 327,-195"/>
<text text-anchor="middle" x="255.5" y="-183" font-family="Helvetica,sans-Serif" font-size="10.00">asyncpp/detail/concepts.h</text>
</a>
</g>
</g>
<!-- Node1&#45;&gt;Node5 -->
<g id="edge4_Node000001_Node000005" class="edge">
<title>Node1&#45;&gt;Node5</title>
<g id="a_edge4_Node000001_Node000005"><a xlink:title=" ">
<path fill="none" stroke="#63b8ff" d="M475.38,-231.95C420.97,-220.7 343.96,-204.79 297,-195.08"/>
<polygon fill="#63b8ff" stroke="#63b8ff" points="474.77,-235.4 485.27,-234 476.19,-228.54 474.77,-235.4"/>
</a>
</g>
</g>
<!-- Node6 -->
<g id="Node000006" class="node">
<title>Node6</title>
<g id="a_Node000006"><a xlink:href="promise__allocator__base_8h_source.html" target="_top" xlink:title=" ">
<polygon fill="white" stroke="#666666" points="510,-140 379,-140 379,-110 510,-110 510,-140"/>
<text text-anchor="start" x="387" y="-128" font-family="Helvetica,sans-Serif" font-size="10.00">asyncpp/detail/promise</text>
<text text-anchor="middle" x="444.5" y="-117" font-family="Helvetica,sans-Serif" font-size="10.00">_allocator_base.h</text>
</a>
</g>
</g>
<!-- Node1&#45;&gt;Node6 -->
<g id="edge18_Node000001_Node000006" class="edge">
<title>Node1&#45;&gt;Node6</title>
<g id="a_edge18_Node000001_Node000006"><a xlink:title=" ">
<path fill="none" stroke="#63b8ff" d="M521.08,-222.95C501.95,-198.74 471.81,-160.58 455.64,-140.1"/>
<polygon fill="#63b8ff" stroke="#63b8ff" points="518.4,-225.2 527.35,-230.88 523.9,-220.87 518.4,-225.2"/>
</a>
</g>
</g>
<!-- Node7 -->
<g id="Node000007" class="node">
<title>Node7</title>
<g id="a_Node000007"><a xlink:href="fire__and__forget_8h_source.html" target="_top" xlink:title=" ">
<polygon fill="white" stroke="#666666" points="310,-74 167,-74 167,-55 310,-55 310,-74"/>
<text text-anchor="middle" x="238.5" y="-62" font-family="Helvetica,sans-Serif" font-size="10.00">asyncpp/fire_and_forget.h</text>
</a>
</g>
</g>
<!-- Node1&#45;&gt;Node7 -->
<g id="edge22_Node000001_Node000007" class="edge">
<title>Node1&#45;&gt;Node7</title>
<g id="a_edge22_Node000001_Node000007"><a xlink:title=" ">
<path fill="none" stroke="#63b8ff" d="M475.12,-242.27C353.74,-235.4 96.81,-212.43 55.5,-140 48.89,-128.42 47.26,-120.48 55.5,-110 69.44,-92.26 121.53,-80.72 166.59,-73.84"/>
<polygon fill="#63b8ff" stroke="#63b8ff" points="475.2,-245.78 485.38,-242.83 475.58,-238.79 475.2,-245.78"/>
</a>
</g>
</g>
<!-- Node10 -->
<g id="Node000010" class="node">
<title>Node10</title>
<g id="a_Node000010"><a xlink:href="generator_8h_source.html" target="_top" xlink:title=" ">
<polygon fill="white" stroke="#666666" points="671.5,-74 555.5,-74 555.5,-55 671.5,-55 671.5,-74"/>
<text text-anchor="middle" x="613.5" y="-62" font-family="Helvetica,sans-Serif" font-size="10.00">asyncpp/generator.h</text>
</a>
</g>
</g>
<!-- Node1&#45;&gt;Node10 -->
<g id="edge23_Node000001_Node000010" class="edge">
<title>Node1&#45;&gt;Node10</title>
<g id="a_edge23_Node000001_Node000010"><a xlink:title=" ">
<path fill="none" stroke="#63b8ff" d="M548.28,-221.6C565.11,-181.31 598.83,-100.61 609.89,-74.13"/>
<polygon fill="#63b8ff" stroke="#63b8ff" points="545.01,-220.34 544.39,-230.91 551.47,-223.04 545.01,-220.34"/>
</a>
</g>
</g>
<!-- Node12 -->
<g id="Node000012" class="node">
<title>Node12</title>
<g id="a_Node000012"><a xlink:href="task_8h_source.html" target="_top" xlink:title=" ">
<polygon fill="white" stroke="#666666" points="537.5,-74 447.5,-74 447.5,-55 537.5,-55 537.5,-74"/>
<text text-anchor="middle" x="492.5" y="-62" font-family="Helvetica,sans-Serif" font-size="10.00">asyncpp/task.h</text>
</a>
</g>
</g>
<!-- Node1&#45;&gt;Node12 -->
<g id="edge26_Node000001_Node000012" class="edge">
<title>Node1&#45;&gt;Node12</title>
<g id="a_edge26_Node000001_Node000012"><a xlink:title=" ">
<path fill="none" stroke="#63b8ff" d="M538,-220.45C536.77,-192.85 532.71,-147.03 519.5,-110 514.7,-96.55 505.54,-82.75 499.23,-74.16"/>
<polygon fill="#63b8ff" stroke="#63b8ff" points="534.52,-220.89 538.36,-230.76 541.51,-220.64 534.52,-220.89"/>
</a>
</g>
</g>
<!-- Node13 -->
<g id="Node000013" class="node">
<title>Node13</title>
<g id="a_Node000013"><a xlink:href="event_8h_source.html" target="_top" xlink:title=" ">
<polygon fill="white" stroke="#666666" points="702,-195 605,-195 605,-176 702,-176 702,-195"/>
<text text-anchor="middle" x="653.5" y="-183" font-family="Helvetica,sans-Serif" font-size="10.00">asyncpp/event.h</text>
</a>
</g>
</g>
<!-- Node1&#45;&gt;Node13 -->
<g id="edge19_Node000001_Node000013" class="edge">
<title>Node1&#45;&gt;Node13</title>
<g id="a_edge19_Node000001_Node000013"><a xlink:title=" ">
<path fill="none" stroke="#63b8ff" d="M575.16,-226.35C595.74,-215.88 620.43,-203.32 636.52,-195.14"/>
<polygon fill="#63b8ff" stroke="#63b8ff" points="573.37,-223.33 566.05,-230.99 576.55,-229.57 573.37,-223.33"/>
</a>
</g>
</g>
<!-- Node15 -->
<g id="Node000015" class="node">
<title>Node15</title>
<g id="a_Node000015"><a xlink:href="fiber_8h_source.html" target="_top" xlink:title=" ">
<polygon fill="white" stroke="#666666" points="810.5,-195 720.5,-195 720.5,-176 810.5,-176 810.5,-195"/>
<text text-anchor="middle" x="765.5" y="-183" font-family="Helvetica,sans-Serif" font-size="10.00">asyncpp/fiber.h</text>
</a>
</g>
</g>
<!-- Node1&#45;&gt;Node15 -->
<g id="edge21_Node000001_Node000015" class="edge">
<title>Node1&#45;&gt;Node15</title>
<g id="a_edge21_Node000001_Node000015"><a xlink:title=" ">
<path fill="none" stroke="#63b8ff" d="M601.67,-228.72C644.03,-217.8 698.12,-203.86 732.3,-195.06"/>
<polygon fill="#63b8ff" stroke="#63b8ff" points="600.53,-225.4 591.72,-231.28 602.28,-232.18 600.53,-225.4"/>
</a>
</g>
</g>
<!-- Node16 -->
<g id="Node000016" class="node">
<title>Node16</title>
<g id="a_Node000016"><a xlink:href="mutex_8h_source.html" target="_top" xlink:title=" ">
<polygon fill="white" stroke="#666666" points="930,-195 829,-195 829,-176 930,-176 930,-195"/>
<text text-anchor="middle" x="879.5" y="-183" font-family="Helvetica,sans-Serif" font-size="10.00">asyncpp/mutex.h</text>
</a>
</g>
</g>
<!-- Node1&#45;&gt;Node16 -->
<g id="edge24_Node000001_Node000016" class="edge">
<title>Node1&#45;&gt;Node16</title>
<g id="a_edge24_Node000001_Node000016"><a xlink:title=" ">
<path fill="none" stroke="#63b8ff" d="M602.04,-234.1C667.97,-222.79 769.68,-205.34 829.92,-195.01"/>
<polygon fill="#63b8ff" stroke="#63b8ff" points="601.05,-230.72 591.78,-235.86 602.23,-237.62 601.05,-230.72"/>
</a>
</g>
</g>
<!-- Node17 -->
<g id="Node000017" class="node">
<title>Node17</title>
<g id="a_Node000017"><a xlink:href="promise_8h_source.html" target="_top" xlink:title=" ">
<polygon fill="white" stroke="#666666" points="1057,-195 948,-195 948,-176 1057,-176 1057,-195"/>
<text text-anchor="middle" x="1002.5" y="-183" font-family="Helvetica,sans-Serif" font-size="10.00">asyncpp/promise.h</text>
</a>
</g>
</g>
<!-- Node1&#45;&gt;Node17 -->
<g id="edge25_Node000001_Node000017" class="edge">
<title>Node1&#45;&gt;Node17</title>
<g id="a_edge25_Node000001_Node000017"><a xlink:title=" ">
<path fill="none" stroke="#63b8ff" d="M601.99,-237.28C681.08,-227.63 820.31,-210.47 939.5,-195 942.24,-194.64 945.04,-194.28 947.87,-193.91"/>
<polygon fill="#63b8ff" stroke="#63b8ff" points="601.21,-233.85 591.71,-238.54 602.06,-240.8 601.21,-233.85"/>
</a>
</g>
</g>
<!-- Node18 -->
<g id="Node000018" class="node">
<title>Node18</title>
<g id="a_Node000018"><a xlink:href="timer_8h_source.html" target="_top" xlink:title=" ">
<polygon fill="white" stroke="#666666" points="1170,-195 1075,-195 1075,-176 1170,-176 1170,-195"/>
<text text-anchor="middle" x="1122.5" y="-183" font-family="Helvetica,sans-Serif" font-size="10.00">asyncpp/timer.h</text>
</a>
</g>
</g>
<!-- Node1&#45;&gt;Node18 -->
<g id="edge27_Node000001_Node000018" class="edge">
<title>Node1&#45;&gt;Node18</title>
<g id="a_edge27_Node000001_Node000018"><a xlink:title=" ">
<path fill="none" stroke="#63b8ff" d="M601.98,-240.15C701.26,-232.3 899.24,-215.6 1066.5,-195 1069.23,-194.66 1072.04,-194.3 1074.87,-193.92"/>
<polygon fill="#63b8ff" stroke="#63b8ff" points="601.51,-236.67 591.82,-240.95 602.06,-243.65 601.51,-236.67"/>
</a>
</g>
</g>
<!-- Node5&#45;&gt;Node2 -->
<g id="edge5_Node000005_Node000002" class="edge">
<title>Node5&#45;&gt;Node2</title>
<g id="a_edge5_Node000005_Node000002"><a xlink:title=" ">
<path fill="none" stroke="#63b8ff" d="M242.09,-167.85C228.13,-151.38 204.92,-126.34 180.5,-110 156.28,-93.79 125.21,-81.6 102.98,-74.11"/>
<polygon fill="#63b8ff" stroke="#63b8ff" points="239.43,-170.12 248.51,-175.58 244.82,-165.65 239.43,-170.12"/>
</a>
</g>
</g>
<!-- Node5&#45;&gt;Node3 -->
<g id="edge6_Node000005_Node000003" class="edge">
<title>Node5&#45;&gt;Node3</title>
<g id="a_edge6_Node000005_Node000003"><a xlink:title=" ">
<path fill="none" stroke="#63b8ff" d="M226.07,-171.93C199.62,-160.64 161.49,-144.36 138.45,-134.52"/>
<polygon fill="#63b8ff" stroke="#63b8ff" points="225.01,-175.29 235.58,-175.99 227.76,-168.85 225.01,-175.29"/>
</a>
</g>
</g>
<!-- Node5&#45;&gt;Node4 -->
<g id="edge7_Node000005_Node000004" class="edge">
<title>Node5&#45;&gt;Node4</title>
<g id="a_edge7_Node000005_Node000004"><a xlink:title=" ">
<path fill="none" stroke="#63b8ff" d="M271.27,-168.59C282.1,-157.67 296.07,-143.58 304.91,-134.67"/>
<polygon fill="#63b8ff" stroke="#63b8ff" points="268.61,-166.3 264.06,-175.87 273.58,-171.23 268.61,-166.3"/>
</a>
</g>
</g>
<!-- Node5&#45;&gt;Node6 -->
<g id="edge8_Node000005_Node000006" class="edge">
<title>Node5&#45;&gt;Node6</title>
<g id="a_edge8_Node000005_Node000006"><a xlink:title=" ">
<path fill="none" stroke="#63b8ff" d="M292.8,-172.95C323.3,-163.51 366.54,-150.13 399.06,-140.06"/>
<polygon fill="#63b8ff" stroke="#63b8ff" points="291.5,-169.69 282.98,-175.99 293.57,-176.38 291.5,-169.69"/>
</a>
</g>
</g>
<!-- Node5&#45;&gt;Node7 -->
<g id="edge17_Node000005_Node000007" class="edge">
<title>Node5&#45;&gt;Node7</title>
<g id="a_edge17_Node000005_Node000007"><a xlink:title=" ">
<path fill="none" stroke="#63b8ff" d="M252.84,-165.86C249.12,-139.81 242.51,-93.56 239.76,-74.3"/>
<polygon fill="#63b8ff" stroke="#63b8ff" points="249.4,-166.54 254.28,-175.94 256.33,-165.55 249.4,-166.54"/>
</a>
</g>
</g>
<!-- Node6&#45;&gt;Node2 -->
<g id="edge9_Node000006_Node000002" class="edge">
<title>Node6&#45;&gt;Node2</title>
<g id="a_edge9_Node000006_Node000002"><a xlink:title=" ">
<path fill="none" stroke="#63b8ff" d="M368.63,-109.89C281.63,-95.33 192.54,-82.22 135.05,-74"/>
<polygon fill="#63b8ff" stroke="#63b8ff" points="368.23,-113.37 378.67,-111.58 369.39,-106.47 368.23,-113.37"/>
</a>
</g>
</g>
<!-- Node6&#45;&gt;Node7 -->
<g id="edge10_Node000006_Node000007" class="edge">
<title>Node6&#45;&gt;Node7</title>
<g id="a_edge10_Node000006_Node000007"><a xlink:title=" ">
<path fill="none" stroke="#63b8ff" d="M385.19,-107.16C347.05,-96.33 299.1,-82.71 268.62,-74.05"/>
<polygon fill="#63b8ff" stroke="#63b8ff" points="384.58,-110.62 395.16,-109.99 386.49,-103.89 384.58,-110.62"/>
</a>
</g>
</g>
<!-- Node6&#45;&gt;Node10 -->
<g id="edge13_Node000006_Node000010" class="edge">
<title>Node6&#45;&gt;Node10</title>
<g id="a_edge13_Node000006_Node000010"><a xlink:title=" ">
<path fill="none" stroke="#63b8ff" d="M494.73,-106.61C525.65,-95.91 563.94,-82.65 588.54,-74.14"/>
<polygon fill="#63b8ff" stroke="#63b8ff" points="493.28,-103.41 484.98,-109.99 495.57,-110.02 493.28,-103.41"/>
</a>
</g>
</g>
<!-- Node11 -->
<g id="Node000011" class="node">
<title>Node11</title>
<g id="a_Node000011"><a xlink:href="launch_8h_source.html" target="_top" xlink:title=" ">
<polygon fill="white" stroke="#666666" points="429,-74 328,-74 328,-55 429,-55 429,-74"/>
<text text-anchor="middle" x="378.5" y="-62" font-family="Helvetica,sans-Serif" font-size="10.00">asyncpp/launch.h</text>
</a>
</g>
</g>
<!-- Node6&#45;&gt;Node11 -->
<g id="edge14_Node000006_Node000011" class="edge">
<title>Node6&#45;&gt;Node11</title>
<g id="a_edge14_Node000006_Node000011"><a xlink:title=" ">
<path fill="none" stroke="#63b8ff" d="M420.76,-102.96C409.61,-93.07 396.93,-81.83 388.39,-74.27"/>
<polygon fill="#63b8ff" stroke="#63b8ff" points="418.72,-105.82 428.52,-109.84 423.36,-100.59 418.72,-105.82"/>
</a>
</g>
</g>
<!-- Node6&#45;&gt;Node12 -->
<g id="edge15_Node000006_Node000012" class="edge">
<title>Node6&#45;&gt;Node12</title>
<g id="a_edge15_Node000006_Node000012"><a xlink:title=" ">
<path fill="none" stroke="#63b8ff" d="M462.48,-102.09C470.41,-92.42 479.28,-81.61 485.31,-74.27"/>
<polygon fill="#63b8ff" stroke="#63b8ff" points="459.76,-99.89 456.12,-109.84 465.17,-104.33 459.76,-99.89"/>
</a>
</g>
</g>
<!-- Node8 -->
<g id="Node000008" class="node">
<title>Node8</title>
<g id="a_Node000008"><a xlink:href="async__main_8h.html" target="_top" xlink:title="Provides a main function running a simple_dispatcher and awaits the function async_main,...">
<polygon fill="white" stroke="#666666" points="499.5,-19 371.5,-19 371.5,0 499.5,0 499.5,-19"/>
<text text-anchor="middle" x="435.5" y="-7" font-family="Helvetica,sans-Serif" font-size="10.00">asyncpp/async_main.h</text>
</a>
</g>
</g>
<!-- Node7&#45;&gt;Node8 -->
<g id="edge11_Node000007_Node000008" class="edge">
<title>Node7&#45;&gt;Node8</title>
<g id="a_edge11_Node000007_Node000008"><a xlink:title=" ">
<path fill="none" stroke="#63b8ff" d="M280.09,-52.31C316.95,-42.39 370,-28.12 403.6,-19.08"/>
<polygon fill="#63b8ff" stroke="#63b8ff" points="278.9,-49.01 270.15,-54.98 280.72,-55.77 278.9,-49.01"/>
</a>
</g>
</g>
<!-- Node9 -->
<g id="Node000009" class="node">
<title>Node9</title>
<g id="a_Node000009"><a xlink:href="sync__wait_8h.html" target="_top" xlink:title="Utility functions for quickly converting a awaitable to a std::future.">
<polygon fill="white" stroke="#666666" points="297.5,-19 179.5,-19 179.5,0 297.5,0 297.5,-19"/>
<text text-anchor="middle" x="238.5" y="-7" font-family="Helvetica,sans-Serif" font-size="10.00">asyncpp/sync_wait.h</text>
</a>
</g>
</g>
<!-- Node7&#45;&gt;Node9 -->
<g id="edge12_Node000007_Node000009" class="edge">
<title>Node7&#45;&gt;Node9</title>
<g id="a_edge12_Node000007_Node000009"><a xlink:title=" ">
<path fill="none" stroke="#63b8ff" d="M238.5,-44.66C238.5,-35.93 238.5,-25.99 238.5,-19.09"/>
<polygon fill="#63b8ff" stroke="#63b8ff" points="235,-44.75 238.5,-54.75 242,-44.75 235,-44.75"/>
</a>
</g>
</g>
<!-- Node12&#45;&gt;Node8 -->
<g id="edge16_Node000012_Node000008" class="edge">
<title>Node12&#45;&gt;Node8</title>
<g id="a_edge16_Node000012_Node000008"><a xlink:title=" ">
<path fill="none" stroke="#63b8ff" d="M475.88,-48.04C465.77,-38.64 453.22,-26.98 444.82,-19.17"/>
<polygon fill="#63b8ff" stroke="#63b8ff" points="473.64,-50.74 483.34,-54.98 478.4,-45.61 473.64,-50.74"/>
</a>
</g>
</g>
<!-- Node14 -->
<g id="Node000014" class="node">
<title>Node14</title>
<g id="a_Node000014"><a xlink:href="latch_8h_source.html" target="_top" xlink:title=" ">
<polygon fill="white" stroke="#666666" points="700,-134.5 607,-134.5 607,-115.5 700,-115.5 700,-134.5"/>
<text text-anchor="middle" x="653.5" y="-122.5" font-family="Helvetica,sans-Serif" font-size="10.00">asyncpp/latch.h</text>
</a>
</g>
</g>
<!-- Node13&#45;&gt;Node14 -->
<g id="edge20_Node000013_Node000014" class="edge">
<title>Node13&#45;&gt;Node14</title>
<g id="a_edge20_Node000013_Node000014"><a xlink:title=" ">
<path fill="none" stroke="#63b8ff" d="M653.5,-165.66C653.5,-155.24 653.5,-142.8 653.5,-134.67"/>
<polygon fill="#63b8ff" stroke="#63b8ff" points="650,-165.87 653.5,-175.87 657,-165.87 650,-165.87"/>
</a>
</g>
</g>
</g>
</svg>
