<?xml version="1.0" encoding="UTF-8" standalone="no"?>
<!DOCTYPE svg PUBLIC "-//W3C//DTD SVG 1.1//EN"
 "http://www.w3.org/Graphics/SVG/1.1/DTD/svg11.dtd">
<!-- Generated by graphviz version 2.43.0 (0)
 -->
<!-- Title: asyncpp/detail/std_import.h Pages: 1 -->
<svg width="1296pt" height="269pt"
 viewBox="0.00 0.00 1296.00 269.00" xmlns="http://www.w3.org/2000/svg" xmlns:xlink="http://www.w3.org/1999/xlink">
<g id="graph0" class="graph" transform="scale(1 1) rotate(0) translate(4 265)">
<title>asyncpp/detail/std_import.h</title>
<!-- Node1 -->
<g id="Node000001" class="node">
<title>Node1</title>
<g id="a_Node000001"><a xlink:title="Provides a consistent import interface for coroutine, experimental/coroutine or a best effort fallbac...">
<polygon fill="#999999" stroke="#666666" points="689.5,-261 583.5,-261 583.5,-231 689.5,-231 689.5,-261"/>
<text text-anchor="start" x="591.5" y="-249" font-family="Helvetica,sans-Serif" font-size="10.00">asyncpp/detail/std</text>
<text text-anchor="middle" x="636.5" y="-238" font-family="Helvetica,sans-Serif" font-size="10.00">_import.h</text>
</a>
</g>
</g>
<!-- Node2 -->
<g id="Node000002" class="node">
<title>Node2</title>
<g id="a_Node000002"><a xlink:href="async__generator_8h_source.html" target="_top" xlink:title=" ">
<polygon fill="white" stroke="#666666" points="149,-74 0,-74 0,-55 149,-55 149,-74"/>
<text text-anchor="middle" x="74.5" y="-62" font-family="Helvetica,sans-Serif" font-size="10.00">asyncpp/async_generator.h</text>
</a>
</g>
</g>
<!-- Node1&#45;&gt;Node2 -->
<g id="edge1_Node000001_Node000002" class="edge">
<title>Node1&#45;&gt;Node2</title>
<g id="a_edge1_Node000001_Node000002"><a xlink:title=" ">
<path fill="none" stroke="#63b8ff" d="M573.29,-244.49C450.09,-242.64 182.7,-234.08 100.5,-195 69.56,-180.29 59.46,-171.71 46.5,-140 36.88,-116.47 55.55,-88.28 66.82,-74.28"/>
<polygon fill="#63b8ff" stroke="#63b8ff" points="573.29,-247.99 583.34,-244.64 573.39,-241 573.29,-247.99"/>
</a>
</g>
</g>
<!-- Node3 -->
<g id="Node000003" class="node">
<title>Node3</title>
<g id="a_Node000003"><a xlink:href="channel_8h_source.html" target="_top" xlink:title=" ">
<polygon fill="white" stroke="#666666" points="172,-134.5 65,-134.5 65,-115.5 172,-115.5 172,-134.5"/>
<text text-anchor="middle" x="118.5" y="-122.5" font-family="Helvetica,sans-Serif" font-size="10.00">asyncpp/channel.h</text>
</a>
</g>
</g>
<!-- Node1&#45;&gt;Node3 -->
<g id="edge2_Node000001_Node000003" class="edge">
<title>Node1&#45;&gt;Node3</title>
<g id="a_edge2_Node000001_Node000003"><a xlink:title=" ">
<path fill="none" stroke="#63b8ff" d="M573.17,-243.51C495.67,-240.16 361.21,-229.4 251.5,-195 204.59,-180.29 154.45,-149.69 131.42,-134.68"/>
<polygon fill="#63b8ff" stroke="#63b8ff" points="573.12,-247.01 583.26,-243.91 573.41,-240.01 573.12,-247.01"/>
</a>
</g>
</g>
<!-- Node4 -->
<g id="Node000004" class="node">
<title>Node4</title>
<g id="a_Node000004"><a xlink:href="defer_8h_source.html" target="_top" xlink:title=" ">
<polygon fill="white" stroke="#666666" points="510.5,-134.5 416.5,-134.5 416.5,-115.5 510.5,-115.5 510.5,-134.5"/>
<text text-anchor="middle" x="463.5" y="-122.5" font-family="Helvetica,sans-Serif" font-size="10.00">asyncpp/defer.h</text>
</a>
</g>
</g>
<!-- Node1&#45;&gt;Node4 -->
<g id="edge3_Node000001_Node000004" class="edge">
<title>Node1&#45;&gt;Node4</title>
<g id="a_edge3_Node000001_Node000004"><a xlink:title=" ">
<path fill="none" stroke="#63b8ff" d="M607.33,-224.94C569.07,-198.62 503.59,-153.57 476.16,-134.71"/>
<polygon fill="#63b8ff" stroke="#63b8ff" points="605.75,-228.1 615.98,-230.88 609.72,-222.33 605.75,-228.1"/>
</a>
</g>
</g>
<!-- Node5 -->
<g id="Node000005" class="node">
<title>Node5</title>
<g id="a_Node000005"><a xlink:href="concepts_8h_source.html" target="_top" xlink:title=" ">
<polygon fill="white" stroke="#666666" points="404,-195 261,-195 261,-176 404,-176 404,-195"/>
<text text-anchor="middle" x="332.5" y="-183" font-family="Helvetica,sans-Serif" font-size="10.00">asyncpp/detail/concepts.h</text>
</a>
</g>
</g>
<!-- Node1&#45;&gt;Node5 -->
<g id="edge4_Node000001_Node000005" class="edge">
<title>Node1&#45;&gt;Node5</title>
<g id="a_edge4_Node000001_Node000005"><a xlink:title=" ">
<path fill="none" stroke="#63b8ff" d="M573.29,-232.84C514.56,-221.53 428.59,-204.99 376.84,-195.03"/>
<polygon fill="#63b8ff" stroke="#63b8ff" points="572.72,-236.29 583.2,-234.74 574.04,-229.42 572.72,-236.29"/>
</a>
</g>
</g>
<!-- Node6 -->
<g id="Node000006" class="node">
<title>Node6</title>
<g id="a_Node000006"><a xlink:href="promise__allocator__base_8h_source.html" target="_top" xlink:title=" ">
<polygon fill="white" stroke="#666666" points="398,-140 267,-140 267,-110 398,-110 398,-140"/>
<text text-anchor="start" x="275" y="-128" font-family="Helvetica,sans-Serif" font-size="10.00">asyncpp/detail/promise</text>
<text text-anchor="middle" x="332.5" y="-117" font-family="Helvetica,sans-Serif" font-size="10.00">_allocator_base.h</text>
</a>
</g>
</g>
<!-- Node1&#45;&gt;Node6 -->
<g id="edge19_Node000001_Node000006" class="edge">
<title>Node1&#45;&gt;Node6</title>
<g id="a_edge19_Node000001_Node000006"><a xlink:title=" ">
<path fill="none" stroke="#63b8ff" d="M591.41,-227.35C530.8,-203.62 424.23,-161.91 368.6,-140.13"/>
<polygon fill="#63b8ff" stroke="#63b8ff" points="590.15,-230.61 600.73,-231 592.7,-224.09 590.15,-230.61"/>
</a>
</g>
</g>
<!-- Node7 -->
<g id="Node000007" class="node">
<title>Node7</title>
<g id="a_Node000007"><a xlink:href="fire__and__forget_8h_source.html" target="_top" xlink:title=" ">
<polygon fill="white" stroke="#666666" points="310,-74 167,-74 167,-55 310,-55 310,-74"/>
<text text-anchor="middle" x="238.5" y="-62" font-family="Helvetica,sans-Serif" font-size="10.00">asyncpp/fire_and_forget.h</text>
</a>
</g>
</g>
<!-- Node1&#45;&gt;Node7 -->
<g id="edge23_Node000001_Node000007" class="edge">
<title>Node1&#45;&gt;Node7</title>
<g id="a_edge23_Node000001_Node000007"><a xlink:title=" ">
<path fill="none" stroke="#63b8ff" d="M573.13,-244.2C434.87,-240.89 113.84,-224.12 55.5,-140 47.9,-129.04 47.26,-120.48 55.5,-110 69.44,-92.26 121.53,-80.72 166.59,-73.84"/>
<polygon fill="#63b8ff" stroke="#63b8ff" points="573.08,-247.7 583.16,-244.43 573.24,-240.71 573.08,-247.7"/>
</a>
</g>
</g>
<!-- Node10 -->
<g id="Node000010" class="node">
<title>Node10</title>
<g id="a_Node000010"><a xlink:href="generator_8h_source.html" target="_top" xlink:title=" ">
<polygon fill="white" stroke="#666666" points="711.5,-74 595.5,-74 595.5,-55 711.5,-55 711.5,-74"/>
<text text-anchor="middle" x="653.5" y="-62" font-family="Helvetica,sans-Serif" font-size="10.00">asyncpp/generator.h</text>
</a>
</g>
</g>
<!-- Node1&#45;&gt;Node10 -->
<g id="edge24_Node000001_Node000010" class="edge">
<title>Node1&#45;&gt;Node10</title>
<g id="a_edge24_Node000001_Node000010"><a xlink:title=" ">
<path fill="none" stroke="#63b8ff" d="M655.65,-222.97C661.61,-214.75 667.43,-204.98 670.5,-195 681.61,-158.89 677.35,-147.15 670.5,-110 668.1,-96.99 662.06,-82.86 657.87,-74.09"/>
<polygon fill="#63b8ff" stroke="#63b8ff" points="652.85,-220.87 649.49,-230.92 658.38,-225.16 652.85,-220.87"/>
</a>
</g>
</g>
<!-- Node12 -->
<g id="Node000012" class="node">
<title>Node12</title>
<g id="a_Node000012"><a xlink:href="task_8h_source.html" target="_top" xlink:title=" ">
<polygon fill="white" stroke="#666666" points="537.5,-74 447.5,-74 447.5,-55 537.5,-55 537.5,-74"/>
<text text-anchor="middle" x="492.5" y="-62" font-family="Helvetica,sans-Serif" font-size="10.00">asyncpp/task.h</text>
</a>
</g>
</g>
<!-- Node1&#45;&gt;Node12 -->
<g id="edge28_Node000001_Node000012" class="edge">
<title>Node1&#45;&gt;Node12</title>
<g id="a_edge28_Node000001_Node000012"><a xlink:title=" ">
<path fill="none" stroke="#63b8ff" d="M644.64,-220.89C652.87,-191.64 661.32,-142.23 637.5,-110 614.8,-79.3 571.3,-69.1 537.84,-66.03"/>
<polygon fill="#63b8ff" stroke="#63b8ff" points="641.22,-220.11 641.67,-230.69 647.92,-222.13 641.22,-220.11"/>
</a>
</g>
</g>
<!-- Node13 -->
<g id="Node000013" class="node">
<title>Node13</title>
<g id="a_Node000013"><a xlink:href="queue_8h_source.html" target="_top" xlink:title=" ">
<polygon fill="white" stroke="#666666" points="628,-134.5 529,-134.5 529,-115.5 628,-115.5 628,-134.5"/>
<text text-anchor="middle" x="578.5" y="-122.5" font-family="Helvetica,sans-Serif" font-size="10.00">asyncpp/queue.h</text>
</a>
</g>
</g>
<!-- Node1&#45;&gt;Node13 -->
<g id="edge27_Node000001_Node000013" class="edge">
<title>Node1&#45;&gt;Node13</title>
<g id="a_edge27_Node000001_Node000013"><a xlink:title=" ">
<path fill="none" stroke="#63b8ff" d="M625.22,-221.86C612.24,-195.24 591.59,-152.86 582.75,-134.71"/>
<polygon fill="#63b8ff" stroke="#63b8ff" points="622.09,-223.43 629.62,-230.88 628.38,-220.36 622.09,-223.43"/>
</a>
</g>
</g>
<!-- Node14 -->
<g id="Node000014" class="node">
<title>Node14</title>
<g id="a_Node000014"><a xlink:href="event_8h_source.html" target="_top" xlink:title=" ">
<polygon fill="white" stroke="#666666" points="820,-195 723,-195 723,-176 820,-176 820,-195"/>
<text text-anchor="middle" x="771.5" y="-183" font-family="Helvetica,sans-Serif" font-size="10.00">asyncpp/event.h</text>
</a>
</g>
</g>
<!-- Node1&#45;&gt;Node14 -->
<g id="edge20_Node000001_Node000014" class="edge">
<title>Node1&#45;&gt;Node14</title>
<g id="a_edge20_Node000001_Node000014"><a xlink:title=" ">
<path fill="none" stroke="#63b8ff" d="M678.24,-226.91C702.64,-216.34 732.34,-203.47 751.56,-195.14"/>
<polygon fill="#63b8ff" stroke="#63b8ff" points="676.62,-223.8 668.84,-230.99 679.4,-230.22 676.62,-223.8"/>
</a>
</g>
</g>
<!-- Node16 -->
<g id="Node000016" class="node">
<title>Node16</title>
<g id="a_Node000016"><a xlink:href="fiber_8h_source.html" target="_top" xlink:title=" ">
<polygon fill="white" stroke="#666666" points="928.5,-195 838.5,-195 838.5,-176 928.5,-176 928.5,-195"/>
<text text-anchor="middle" x="883.5" y="-183" font-family="Helvetica,sans-Serif" font-size="10.00">asyncpp/fiber.h</text>
</a>
</g>
</g>
<!-- Node1&#45;&gt;Node16 -->
<g id="edge22_Node000001_Node000016" class="edge">
<title>Node1&#45;&gt;Node16</title>
<g id="a_edge22_Node000001_Node000016"><a xlink:title=" ">
<path fill="none" stroke="#63b8ff" d="M699.55,-230.07C746.43,-218.97 808.73,-204.21 847.46,-195.04"/>
<polygon fill="#63b8ff" stroke="#63b8ff" points="698.72,-226.67 689.79,-232.38 700.33,-233.48 698.72,-226.67"/>
</a>
</g>
</g>
<!-- Node17 -->
<g id="Node000017" class="node">
<title>Node17</title>
<g id="a_Node000017"><a xlink:href="mutex_8h_source.html" target="_top" xlink:title=" ">
<polygon fill="white" stroke="#666666" points="1048,-195 947,-195 947,-176 1048,-176 1048,-195"/>
<text text-anchor="middle" x="997.5" y="-183" font-family="Helvetica,sans-Serif" font-size="10.00">asyncpp/mutex.h</text>
</a>
</g>
</g>
<!-- Node1&#45;&gt;Node17 -->
<g id="edge25_Node000001_Node000017" class="edge">
<title>Node1&#45;&gt;Node17</title>
<g id="a_edge25_Node000001_Node000017"><a xlink:title=" ">
<path fill="none" stroke="#63b8ff" d="M699.83,-234.74C770.14,-223.34 882.23,-205.18 946.93,-194.69"/>
<polygon fill="#63b8ff" stroke="#63b8ff" points="699.08,-231.31 689.77,-236.37 700.2,-238.22 699.08,-231.31"/>
</a>
</g>
</g>
<!-- Node18 -->
<g id="Node000018" class="node">
<title>Node18</title>
<g id="a_Node000018"><a xlink:href="promise_8h_source.html" target="_top" xlink:title=" ">
<polygon fill="white" stroke="#666666" points="1175,-195 1066,-195 1066,-176 1175,-176 1175,-195"/>
<text text-anchor="middle" x="1120.5" y="-183" font-family="Helvetica,sans-Serif" font-size="10.00">asyncpp/promise.h</text>
</a>
</g>
</g>
<!-- Node1&#45;&gt;Node18 -->
<g id="edge26_Node000001_Node000018" class="edge">
<title>Node1&#45;&gt;Node18</title>
<g id="a_edge26_Node000001_Node000018"><a xlink:title=" ">
<path fill="none" stroke="#63b8ff" d="M699.66,-237.82C782.04,-228.37 930.63,-211.09 1057.5,-195 1060.24,-194.65 1063.04,-194.29 1065.87,-193.92"/>
<polygon fill="#63b8ff" stroke="#63b8ff" points="699.24,-234.34 689.7,-238.96 700.03,-241.3 699.24,-234.34"/>
</a>
</g>
</g>
<!-- Node19 -->
<g id="Node000019" class="node">
<title>Node19</title>
<g id="a_Node000019"><a xlink:href="timer_8h_source.html" target="_top" xlink:title=" ">
<polygon fill="white" stroke="#666666" points="1288,-195 1193,-195 1193,-176 1288,-176 1288,-195"/>
<text text-anchor="middle" x="1240.5" y="-183" font-family="Helvetica,sans-Serif" font-size="10.00">asyncpp/timer.h</text>
</a>
</g>
</g>
<!-- Node1&#45;&gt;Node19 -->
<g id="edge29_Node000001_Node000019" class="edge">
<title>Node1&#45;&gt;Node19</title>
<g id="a_edge29_Node000001_Node000019"><a xlink:title=" ">
<path fill="none" stroke="#63b8ff" d="M699.65,-240.47C801.77,-232.87 1009.37,-216.26 1184.5,-195 1187.23,-194.67 1190.04,-194.31 1192.87,-193.93"/>
<polygon fill="#63b8ff" stroke="#63b8ff" points="699.23,-236.99 689.51,-241.22 699.74,-243.97 699.23,-236.99"/>
</a>
</g>
</g>
<!-- Node5&#45;&gt;Node2 -->
<g id="edge5_Node000005_Node000002" class="edge">
<title>Node5&#45;&gt;Node2</title>
<g id="a_edge5_Node000005_Node000002"><a xlink:title=" ">
<path fill="none" stroke="#63b8ff" d="M305.27,-171.44C286.94,-162.63 262.23,-150.69 240.5,-140 213.75,-126.84 207.59,-122.44 180.5,-110 151.66,-96.75 117.76,-82.8 96.2,-74.12"/>
<polygon fill="#63b8ff" stroke="#63b8ff" points="303.96,-174.7 314.48,-175.87 306.99,-168.39 303.96,-174.7"/>
</a>
</g>
</g>
<!-- Node5&#45;&gt;Node3 -->
<g id="edge6_Node000005_Node000003" class="edge">
<title>Node5&#45;&gt;Node3</title>
<g id="a_edge6_Node000005_Node000003"><a xlink:title=" ">
<path fill="none" stroke="#63b8ff" d="M291.62,-173.32C250.23,-162.01 187.15,-144.77 149.65,-134.52"/>
<polygon fill="#63b8ff" stroke="#63b8ff" points="290.81,-176.73 301.38,-175.99 292.66,-169.98 290.81,-176.73"/>
</a>
</g>
</g>
<!-- Node5&#45;&gt;Node4 -->
<g id="edge7_Node000005_Node000004" class="edge">
<title>Node5&#45;&gt;Node4</title>
<g id="a_edge7_Node000005_Node000004"><a xlink:title=" ">
<path fill="none" stroke="#63b8ff" d="M360.98,-171.78C386.26,-160.49 422.49,-144.31 444.43,-134.52"/>
<polygon fill="#63b8ff" stroke="#63b8ff" points="359.25,-168.72 351.55,-175.99 362.11,-175.11 359.25,-168.72"/>
</a>
</g>
</g>
<!-- Node5&#45;&gt;Node6 -->
<g id="edge8_Node000005_Node000006" class="edge">
<title>Node5&#45;&gt;Node6</title>
<g id="a_edge8_Node000005_Node000006"><a xlink:title=" ">
<path fill="none" stroke="#63b8ff" d="M332.5,-165.65C332.5,-157.36 332.5,-147.78 332.5,-140.11"/>
<polygon fill="#63b8ff" stroke="#63b8ff" points="329,-165.87 332.5,-175.87 336,-165.87 329,-165.87"/>
</a>
</g>
</g>
<!-- Node5&#45;&gt;Node7 -->
<g id="edge17_Node000005_Node000007" class="edge">
<title>Node5&#45;&gt;Node7</title>
<g id="a_edge17_Node000005_Node000007"><a xlink:title=" ">
<path fill="none" stroke="#63b8ff" d="M299.06,-171.68C284.31,-164.46 267.99,-154.02 257.5,-140 242.46,-119.91 239.27,-89.15 238.63,-74.22"/>
<polygon fill="#63b8ff" stroke="#63b8ff" points="297.89,-175 308.44,-175.97 300.8,-168.63 297.89,-175"/>
</a>
</g>
</g>
<!-- Node5&#45;&gt;Node13 -->
<g id="edge18_Node000005_Node000013" class="edge">
<title>Node5&#45;&gt;Node13</title>
<g id="a_edge18_Node000005_Node000013"><a xlink:title=" ">
<path fill="none" stroke="#63b8ff" d="M378.3,-173.61C425.84,-162.3 499.21,-144.85 542.69,-134.52"/>
<polygon fill="#63b8ff" stroke="#63b8ff" points="377.19,-170.27 368.27,-175.99 378.81,-177.09 377.19,-170.27"/>
</a>
</g>
</g>
<!-- Node6&#45;&gt;Node2 -->
<g id="edge9_Node000006_Node000002" class="edge">
<title>Node6&#45;&gt;Node2</title>
<g id="a_edge9_Node000006_Node000002"><a xlink:title=" ">
<path fill="none" stroke="#63b8ff" d="M260.95,-107.78C212.76,-96.85 151.13,-82.88 112.22,-74.05"/>
<polygon fill="#63b8ff" stroke="#63b8ff" points="260.18,-111.19 270.7,-109.99 261.72,-104.36 260.18,-111.19"/>
</a>
</g>
</g>
<!-- Node6&#45;&gt;Node7 -->
<g id="edge10_Node000006_Node000007" class="edge">
<title>Node6&#45;&gt;Node7</title>
<g id="a_edge10_Node000006_Node000007"><a xlink:title=" ">
<path fill="none" stroke="#63b8ff" d="M300.93,-104.35C284.41,-94.07 265.04,-82.02 252.31,-74.09"/>
<polygon fill="#63b8ff" stroke="#63b8ff" points="299.41,-107.53 309.75,-109.84 303.1,-101.58 299.41,-107.53"/>
</a>
</g>
</g>
<!-- Node6&#45;&gt;Node10 -->
<g id="edge13_Node000006_Node000010" class="edge">
<title>Node6&#45;&gt;Node10</title>
<g id="a_edge13_Node000006_Node000010"><a xlink:title=" ">
<path fill="none" stroke="#63b8ff" d="M408.42,-109.84C483.25,-96.1 558.43,-82.55 605.87,-74.04"/>
<polygon fill="#63b8ff" stroke="#63b8ff" points="407.55,-106.44 398.35,-111.69 408.81,-113.32 407.55,-106.44"/>
</a>
</g>
</g>
<!-- Node11 -->
<g id="Node000011" class="node">
<title>Node11</title>
<g id="a_Node000011"><a xlink:href="launch_8h_source.html" target="_top" xlink:title=" ">
<polygon fill="white" stroke="#666666" points="429,-74 328,-74 328,-55 429,-55 429,-74"/>
<text text-anchor="middle" x="378.5" y="-62" font-family="Helvetica,sans-Serif" font-size="10.00">asyncpp/launch.h</text>
</a>
</g>
</g>
<!-- Node6&#45;&gt;Node11 -->
<g id="edge14_Node000006_Node000011" class="edge">
<title>Node6&#45;&gt;Node11</title>
<g id="a_edge14_Node000006_Node000011"><a xlink:title=" ">
<path fill="none" stroke="#63b8ff" d="M349.96,-101.8C357.5,-92.21 365.89,-81.54 371.61,-74.27"/>
<polygon fill="#63b8ff" stroke="#63b8ff" points="347.07,-99.81 343.64,-109.84 352.57,-104.14 347.07,-99.81"/>
</a>
</g>
</g>
<!-- Node6&#45;&gt;Node12 -->
<g id="edge15_Node000006_Node000012" class="edge">
<title>Node6&#45;&gt;Node12</title>
<g id="a_edge15_Node000006_Node000012"><a xlink:title=" ">
<path fill="none" stroke="#63b8ff" d="M380.44,-106.47C409.64,-95.79 445.68,-82.62 468.87,-74.14"/>
<polygon fill="#63b8ff" stroke="#63b8ff" points="379.01,-103.27 370.82,-109.99 381.42,-109.84 379.01,-103.27"/>
</a>
</g>
</g>
<!-- Node8 -->
<g id="Node000008" class="node">
<title>Node8</title>
<g id="a_Node000008"><a xlink:href="async__main_8h.html" target="_top" xlink:title="Provides a main function running a simple_dispatcher and awaits the function async_main,...">
<polygon fill="white" stroke="#666666" points="499.5,-19 371.5,-19 371.5,0 499.5,0 499.5,-19"/>
<text text-anchor="middle" x="435.5" y="-7" font-family="Helvetica,sans-Serif" font-size="10.00">asyncpp/async_main.h</text>
</a>
</g>
</g>
<!-- Node7&#45;&gt;Node8 -->
<g id="edge11_Node000007_Node000008" class="edge">
<title>Node7&#45;&gt;Node8</title>
<g id="a_edge11_Node000007_Node000008"><a xlink:title=" ">
<path fill="none" stroke="#63b8ff" d="M280.09,-52.31C316.95,-42.39 370,-28.12 403.6,-19.08"/>
<polygon fill="#63b8ff" stroke="#63b8ff" points="278.9,-49.01 270.15,-54.98 280.72,-55.77 278.9,-49.01"/>
</a>
</g>
</g>
<!-- Node9 -->
<g id="Node000009" class="node">
<title>Node9</title>
<g id="a_Node000009"><a xlink:href="sync__wait_8h.html" target="_top" xlink:title="Utility functions for quickly converting a awaitable to a std::future.">
<polygon fill="white" stroke="#666666" points="297.5,-19 179.5,-19 179.5,0 297.5,0 297.5,-19"/>
<text text-anchor="middle" x="238.5" y="-7" font-family="Helvetica,sans-Serif" font-size="10.00">asyncpp/sync_wait.h</text>
</a>
</g>
</g>
<!-- Node7&#45;&gt;Node9 -->
<g id="edge12_Node000007_Node000009" class="edge">
<title>Node7&#45;&gt;Node9</title>
<g id="a_edge12_Node000007_Node000009"><a xlink:title=" ">
<path fill="none" stroke="#63b8ff" d="M238.5,-44.66C238.5,-35.93 238.5,-25.99 238.5,-19.09"/>
<polygon fill="#63b8ff" stroke="#63b8ff" points="235,-44.75 238.5,-54.75 242,-44.75 235,-44.75"/>
</a>
</g>
</g>
<!-- Node12&#45;&gt;Node8 -->
<g id="edge16_Node000012_Node000008" class="edge">
<title>Node12&#45;&gt;Node8</title>
<g id="a_edge16_Node000012_Node000008"><a xlink:title=" ">
<path fill="none" stroke="#63b8ff" d="M475.88,-48.04C465.77,-38.64 453.22,-26.98 444.82,-19.17"/>
<polygon fill="#63b8ff" stroke="#63b8ff" points="473.64,-50.74 483.34,-54.98 478.4,-45.61 473.64,-50.74"/>
</a>
</g>
</g>
<!-- Node15 -->
<g id="Node000015" class="node">
<title>Node15</title>
<g id="a_Node000015"><a xlink:href="latch_8h_source.html" target="_top" xlink:title=" ">
<polygon fill="white" stroke="#666666" points="818,-134.5 725,-134.5 725,-115.5 818,-115.5 818,-134.5"/>
<text text-anchor="middle" x="771.5" y="-122.5" font-family="Helvetica,sans-Serif" font-size="10.00">asyncpp/latch.h</text>
</a>
</g>
</g>
<!-- Node14&#45;&gt;Node15 -->
<g id="edge21_Node000014_Node000015" class="edge">
<title>Node14&#45;&gt;Node15</title>
<g id="a_edge21_Node000014_Node000015"><a xlink:title=" ">
<path fill="none" stroke="#63b8ff" d="M771.5,-165.66C771.5,-155.24 771.5,-142.8 771.5,-134.67"/>
<polygon fill="#63b8ff" stroke="#63b8ff" points="768,-165.87 771.5,-175.87 775,-165.87 768,-165.87"/>
</a>
</g>
</g>
</g>
</svg>
