<?xml version="1.0" encoding="UTF-8" standalone="no"?>
<!DOCTYPE svg PUBLIC "-//W3C//DTD SVG 1.1//EN"
 "http://www.w3.org/Graphics/SVG/1.1/DTD/svg11.dtd">
<!-- Generated by graphviz version 2.43.0 (0)
 -->
<!-- Title: asyncpp/sync_wait.h Pages: 1 -->
<svg width="584pt" height="335pt"
 viewBox="0.00 0.00 584.00 335.00" xmlns="http://www.w3.org/2000/svg" xmlns:xlink="http://www.w3.org/1999/xlink">
<g id="graph0" class="graph" transform="scale(1 1) rotate(0) translate(4 331)">
<title>asyncpp/sync_wait.h</title>
<!-- Node1 -->
<g id="Node000001" class="node">
<title>Node1</title>
<g id="a_Node000001"><a xlink:title="Utility functions for quickly converting a awaitable to a std::future.">
<polygon fill="#999999" stroke="#666666" points="465.5,-327 347.5,-327 347.5,-308 465.5,-308 465.5,-327"/>
<text text-anchor="middle" x="406.5" y="-315" font-family="Helvetica,sans-Serif" font-size="10.00">asyncpp/sync_wait.h</text>
</a>
</g>
</g>
<!-- Node2 -->
<g id="Node000002" class="node">
<title>Node2</title>
<g id="a_Node000002"><a xlink:href="fire__and__forget_8h_source.html" target="_top" xlink:title=" ">
<polygon fill="white" stroke="#666666" points="422,-272 279,-272 279,-253 422,-253 422,-272"/>
<text text-anchor="middle" x="350.5" y="-260" font-family="Helvetica,sans-Serif" font-size="10.00">asyncpp/fire_and_forget.h</text>
</a>
</g>
</g>
<!-- Node1&#45;&gt;Node2 -->
<g id="edge1_Node000001_Node000002" class="edge">
<title>Node1&#45;&gt;Node2</title>
<g id="a_edge1_Node000001_Node000002"><a xlink:title=" ">
<path fill="none" stroke="#63b8ff" d="M397.5,-307.98C389.31,-300.23 376.99,-288.58 367.03,-279.14"/>
<polygon fill="#63b8ff" stroke="#63b8ff" points="369.33,-276.5 359.66,-272.17 364.52,-281.59 369.33,-276.5"/>
</a>
</g>
</g>
<!-- Node17 -->
<g id="Node000017" class="node">
<title>Node17</title>
<g id="a_Node000017"><a xlink:title=" ">
<polygon fill="#e0e0e0" stroke="#999999" points="486.5,-272 440.5,-272 440.5,-253 486.5,-253 486.5,-272"/>
<text text-anchor="middle" x="463.5" y="-260" font-family="Helvetica,sans-Serif" font-size="10.00">future</text>
</a>
</g>
</g>
<!-- Node1&#45;&gt;Node17 -->
<g id="edge26_Node000001_Node000017" class="edge">
<title>Node1&#45;&gt;Node17</title>
<g id="a_edge26_Node000001_Node000017"><a xlink:title=" ">
<path fill="none" stroke="#63b8ff" d="M415.66,-307.98C424,-300.23 436.53,-288.58 446.68,-279.14"/>
<polygon fill="#63b8ff" stroke="#63b8ff" points="449.24,-281.54 454.18,-272.17 444.47,-276.42 449.24,-281.54"/>
</a>
</g>
</g>
<!-- Node3 -->
<g id="Node000003" class="node">
<title>Node3</title>
<g id="a_Node000003"><a xlink:href="concepts_8h_source.html" target="_top" xlink:title=" ">
<polygon fill="white" stroke="#666666" points="223,-145.5 80,-145.5 80,-126.5 223,-126.5 223,-145.5"/>
<text text-anchor="middle" x="151.5" y="-133.5" font-family="Helvetica,sans-Serif" font-size="10.00">asyncpp/detail/concepts.h</text>
</a>
</g>
</g>
<!-- Node2&#45;&gt;Node3 -->
<g id="edge2_Node000002_Node000003" class="edge">
<title>Node2&#45;&gt;Node3</title>
<g id="a_edge2_Node000002_Node000003"><a xlink:title=" ">
<path fill="none" stroke="#63b8ff" d="M319.78,-252.85C296.18,-245.41 263.37,-233.3 237.5,-217 209.03,-199.06 181.54,-171.02 165.58,-153.34"/>
<polygon fill="#63b8ff" stroke="#63b8ff" points="167.97,-150.76 158.73,-145.59 162.73,-155.4 167.97,-150.76"/>
</a>
</g>
</g>
<!-- Node4 -->
<g id="Node000004" class="node">
<title>Node4</title>
<g id="a_Node000004"><a xlink:href="std__import_8h.html" target="_top" xlink:title="Provides a consistent import interface for coroutine, experimental/coroutine or a best effort fallbac...">
<polygon fill="white" stroke="#666666" points="235.5,-85 129.5,-85 129.5,-55 235.5,-55 235.5,-85"/>
<text text-anchor="start" x="137.5" y="-73" font-family="Helvetica,sans-Serif" font-size="10.00">asyncpp/detail/std</text>
<text text-anchor="middle" x="182.5" y="-62" font-family="Helvetica,sans-Serif" font-size="10.00">_import.h</text>
</a>
</g>
</g>
<!-- Node2&#45;&gt;Node4 -->
<g id="edge19_Node000002_Node000004" class="edge">
<title>Node2&#45;&gt;Node4</title>
<g id="a_edge19_Node000002_Node000004"><a xlink:title=" ">
<path fill="none" stroke="#63b8ff" d="M343.47,-252.76C325.4,-230.39 275.64,-169.44 231.5,-121 222.76,-111.41 212.79,-101.13 204.14,-92.39"/>
<polygon fill="#63b8ff" stroke="#63b8ff" points="206.48,-89.78 196.93,-85.17 201.52,-94.73 206.48,-89.78"/>
</a>
</g>
</g>
<!-- Node11 -->
<g id="Node000011" class="node">
<title>Node11</title>
<g id="a_Node000011"><a xlink:href="promise__allocator__base_8h_source.html" target="_top" xlink:title=" ">
<polygon fill="white" stroke="#666666" points="185,-217 54,-217 54,-187 185,-187 185,-217"/>
<text text-anchor="start" x="62" y="-205" font-family="Helvetica,sans-Serif" font-size="10.00">asyncpp/detail/promise</text>
<text text-anchor="middle" x="119.5" y="-194" font-family="Helvetica,sans-Serif" font-size="10.00">_allocator_base.h</text>
</a>
</g>
</g>
<!-- Node2&#45;&gt;Node11 -->
<g id="edge12_Node000002_Node000011" class="edge">
<title>Node2&#45;&gt;Node11</title>
<g id="a_edge12_Node000002_Node000011"><a xlink:title=" ">
<path fill="none" stroke="#63b8ff" d="M316.91,-252.99C282.43,-244.26 227.89,-230.45 184.87,-219.55"/>
<polygon fill="#63b8ff" stroke="#63b8ff" points="185.59,-216.13 175.04,-217.06 183.87,-222.91 185.59,-216.13"/>
</a>
</g>
</g>
<!-- Node13 -->
<g id="Node000013" class="node">
<title>Node13</title>
<g id="a_Node000013"><a xlink:title=" ">
<polygon fill="#e0e0e0" stroke="#999999" points="454,-79.5 409,-79.5 409,-60.5 454,-60.5 454,-79.5"/>
<text text-anchor="middle" x="431.5" y="-67.5" font-family="Helvetica,sans-Serif" font-size="10.00">utility</text>
</a>
</g>
</g>
<!-- Node2&#45;&gt;Node13 -->
<g id="edge25_Node000002_Node000013" class="edge">
<title>Node2&#45;&gt;Node13</title>
<g id="a_edge25_Node000002_Node000013"><a xlink:title=" ">
<path fill="none" stroke="#63b8ff" d="M359.76,-252.87C377.57,-235.59 416.07,-194.62 430.5,-151 437.17,-130.86 436.23,-106.27 434.4,-89.71"/>
<polygon fill="#63b8ff" stroke="#63b8ff" points="437.85,-89.14 433.06,-79.69 430.91,-90.06 437.85,-89.14"/>
</a>
</g>
</g>
<!-- Node14 -->
<g id="Node000014" class="node">
<title>Node14</title>
<g id="a_Node000014"><a xlink:href="policy_8h_source.html" target="_top" xlink:title=" ">
<polygon fill="white" stroke="#666666" points="575,-145.5 478,-145.5 478,-126.5 575,-126.5 575,-145.5"/>
<text text-anchor="middle" x="526.5" y="-133.5" font-family="Helvetica,sans-Serif" font-size="10.00">asyncpp/policy.h</text>
</a>
</g>
</g>
<!-- Node2&#45;&gt;Node14 -->
<g id="edge20_Node000002_Node000014" class="edge">
<title>Node2&#45;&gt;Node14</title>
<g id="a_edge20_Node000002_Node000014"><a xlink:title=" ">
<path fill="none" stroke="#63b8ff" d="M385.25,-252.99C408.91,-246.02 440.07,-234.43 463.5,-217 486.48,-199.91 505.61,-172.41 516.55,-154.52"/>
<polygon fill="#63b8ff" stroke="#63b8ff" points="519.69,-156.09 521.76,-145.7 513.66,-152.53 519.69,-156.09"/>
</a>
</g>
</g>
<!-- Node16 -->
<g id="Node000016" class="node">
<title>Node16</title>
<g id="a_Node000016"><a xlink:title=" ">
<polygon fill="#e0e0e0" stroke="#999999" points="565.5,-211.5 515.5,-211.5 515.5,-192.5 565.5,-192.5 565.5,-211.5"/>
<text text-anchor="middle" x="540.5" y="-199.5" font-family="Helvetica,sans-Serif" font-size="10.00">atomic</text>
</a>
</g>
</g>
<!-- Node2&#45;&gt;Node16 -->
<g id="edge24_Node000002_Node000016" class="edge">
<title>Node2&#45;&gt;Node16</title>
<g id="a_edge24_Node000002_Node000016"><a xlink:title=" ">
<path fill="none" stroke="#63b8ff" d="M381.32,-252.98C411.95,-244.39 460.19,-230.49 501.5,-217 503.61,-216.31 505.78,-215.58 507.96,-214.84"/>
<polygon fill="#63b8ff" stroke="#63b8ff" points="509.19,-218.12 517.48,-211.51 506.88,-211.51 509.19,-218.12"/>
</a>
</g>
</g>
<!-- Node3&#45;&gt;Node4 -->
<g id="edge3_Node000003_Node000004" class="edge">
<title>Node3&#45;&gt;Node4</title>
<g id="a_edge3_Node000003_Node000004"><a xlink:title=" ">
<path fill="none" stroke="#63b8ff" d="M155.68,-126.37C159.62,-118.24 165.7,-105.69 171.07,-94.59"/>
<polygon fill="#63b8ff" stroke="#63b8ff" points="174.33,-95.89 175.54,-85.36 168.03,-92.83 174.33,-95.89"/>
</a>
</g>
</g>
<!-- Node7 -->
<g id="Node000007" class="node">
<title>Node7</title>
<g id="a_Node000007"><a xlink:title=" ">
<polygon fill="#e0e0e0" stroke="#999999" points="426,-19 361,-19 361,0 426,0 426,-19"/>
<text text-anchor="middle" x="393.5" y="-7" font-family="Helvetica,sans-Serif" font-size="10.00">functional</text>
</a>
</g>
</g>
<!-- Node3&#45;&gt;Node7 -->
<g id="edge10_Node000003_Node000007" class="edge">
<title>Node3&#45;&gt;Node7</title>
<g id="a_edge10_Node000003_Node000007"><a xlink:title=" ">
<path fill="none" stroke="#63b8ff" d="M168.13,-126.44C209.58,-105.12 317.7,-49.5 367.59,-23.83"/>
<polygon fill="#63b8ff" stroke="#63b8ff" points="369.46,-26.8 376.75,-19.12 366.26,-20.58 369.46,-26.8"/>
</a>
</g>
</g>
<!-- Node10 -->
<g id="Node000010" class="node">
<title>Node10</title>
<g id="a_Node000010"><a xlink:title=" ">
<polygon fill="#e0e0e0" stroke="#999999" points="69,-19 0,-19 0,0 69,0 69,-19"/>
<text text-anchor="middle" x="34.5" y="-7" font-family="Helvetica,sans-Serif" font-size="10.00">type_traits</text>
</a>
</g>
</g>
<!-- Node3&#45;&gt;Node10 -->
<g id="edge11_Node000003_Node000010" class="edge">
<title>Node3&#45;&gt;Node10</title>
<g id="a_edge11_Node000003_Node000010"><a xlink:title=" ">
<path fill="none" stroke="#63b8ff" d="M143.46,-126.44C124.09,-105.83 74.6,-53.17 49.53,-26.5"/>
<polygon fill="#63b8ff" stroke="#63b8ff" points="52,-24.01 42.6,-19.12 46.9,-28.8 52,-24.01"/>
</a>
</g>
</g>
<!-- Node5 -->
<g id="Node000005" class="node">
<title>Node5</title>
<g id="a_Node000005"><a xlink:title=" ">
<polygon fill="#e0e0e0" stroke="#999999" points="271.5,-19 219.5,-19 219.5,0 271.5,0 271.5,-19"/>
<text text-anchor="middle" x="245.5" y="-7" font-family="Helvetica,sans-Serif" font-size="10.00">cassert</text>
</a>
</g>
</g>
<!-- Node4&#45;&gt;Node5 -->
<g id="edge4_Node000004_Node000005" class="edge">
<title>Node4&#45;&gt;Node5</title>
<g id="a_edge4_Node000004_Node000005"><a xlink:title=" ">
<path fill="none" stroke="#63b8ff" d="M197.75,-54.84C207.08,-46.17 219.03,-35.08 228.65,-26.15"/>
<polygon fill="#63b8ff" stroke="#63b8ff" points="231.11,-28.64 236.06,-19.27 226.35,-23.51 231.11,-28.64"/>
</a>
</g>
</g>
<!-- Node6 -->
<g id="Node000006" class="node">
<title>Node6</title>
<g id="a_Node000006"><a xlink:title=" ">
<polygon fill="#e0e0e0" stroke="#999999" points="343,-19 290,-19 290,0 343,0 343,-19"/>
<text text-anchor="middle" x="316.5" y="-7" font-family="Helvetica,sans-Serif" font-size="10.00">cstddef</text>
</a>
</g>
</g>
<!-- Node4&#45;&gt;Node6 -->
<g id="edge5_Node000004_Node000006" class="edge">
<title>Node4&#45;&gt;Node6</title>
<g id="a_edge5_Node000004_Node000006"><a xlink:title=" ">
<path fill="none" stroke="#63b8ff" d="M214.6,-54.99C236.75,-45.31 265.98,-32.56 287.45,-23.18"/>
<polygon fill="#63b8ff" stroke="#63b8ff" points="288.95,-26.35 296.71,-19.14 286.15,-19.93 288.95,-26.35"/>
</a>
</g>
</g>
<!-- Node4&#45;&gt;Node7 -->
<g id="edge6_Node000004_Node000007" class="edge">
<title>Node4&#45;&gt;Node7</title>
<g id="a_edge6_Node000004_Node000007"><a xlink:title=" ">
<path fill="none" stroke="#63b8ff" d="M233.04,-54.99C269.77,-44.8 318.83,-31.2 352.99,-21.73"/>
<polygon fill="#63b8ff" stroke="#63b8ff" points="353.95,-25.1 362.65,-19.05 352.08,-18.35 353.95,-25.1"/>
</a>
</g>
</g>
<!-- Node8 -->
<g id="Node000008" class="node">
<title>Node8</title>
<g id="a_Node000008"><a xlink:title=" ">
<polygon fill="#e0e0e0" stroke="#999999" points="145.5,-19 87.5,-19 87.5,0 145.5,0 145.5,-19"/>
<text text-anchor="middle" x="116.5" y="-7" font-family="Helvetica,sans-Serif" font-size="10.00">memory</text>
</a>
</g>
</g>
<!-- Node4&#45;&gt;Node8 -->
<g id="edge7_Node000004_Node000008" class="edge">
<title>Node4&#45;&gt;Node8</title>
<g id="a_edge7_Node000004_Node000008"><a xlink:title=" ">
<path fill="none" stroke="#63b8ff" d="M166.52,-54.84C156.75,-46.17 144.23,-35.08 134.16,-26.15"/>
<polygon fill="#63b8ff" stroke="#63b8ff" points="136.19,-23.28 126.39,-19.27 131.55,-28.52 136.19,-23.28"/>
</a>
</g>
</g>
<!-- Node9 -->
<g id="Node000009" class="node">
<title>Node9</title>
<g id="a_Node000009"><a xlink:title=" ">
<polygon fill="#e0e0e0" stroke="#999999" points="201,-19 164,-19 164,0 201,0 201,-19"/>
<text text-anchor="middle" x="182.5" y="-7" font-family="Helvetica,sans-Serif" font-size="10.00">new</text>
</a>
</g>
</g>
<!-- Node4&#45;&gt;Node9 -->
<g id="edge8_Node000004_Node000009" class="edge">
<title>Node4&#45;&gt;Node9</title>
<g id="a_edge8_Node000004_Node000009"><a xlink:title=" ">
<path fill="none" stroke="#63b8ff" d="M182.5,-54.84C182.5,-47.21 182.5,-37.7 182.5,-29.45"/>
<polygon fill="#63b8ff" stroke="#63b8ff" points="186,-29.27 182.5,-19.27 179,-29.27 186,-29.27"/>
</a>
</g>
</g>
<!-- Node4&#45;&gt;Node10 -->
<g id="edge9_Node000004_Node000010" class="edge">
<title>Node4&#45;&gt;Node10</title>
<g id="a_edge9_Node000004_Node000010"><a xlink:title=" ">
<path fill="none" stroke="#63b8ff" d="M147.05,-54.99C122.36,-45.23 89.72,-32.33 65.95,-22.93"/>
<polygon fill="#63b8ff" stroke="#63b8ff" points="66.94,-19.56 56.36,-19.14 64.37,-26.07 66.94,-19.56"/>
</a>
</g>
</g>
<!-- Node11&#45;&gt;Node3 -->
<g id="edge13_Node000011_Node000003" class="edge">
<title>Node11&#45;&gt;Node3</title>
<g id="a_edge13_Node000011_Node000003"><a xlink:title=" ">
<path fill="none" stroke="#63b8ff" d="M126.6,-186.8C131.3,-177.41 137.49,-165.02 142.53,-154.95"/>
<polygon fill="#63b8ff" stroke="#63b8ff" points="145.74,-156.35 147.08,-145.84 139.48,-153.22 145.74,-156.35"/>
</a>
</g>
</g>
<!-- Node11&#45;&gt;Node4 -->
<g id="edge17_Node000011_Node000004" class="edge">
<title>Node11&#45;&gt;Node4</title>
<g id="a_edge17_Node000011_Node000004"><a xlink:title=" ">
<path fill="none" stroke="#63b8ff" d="M100.48,-186.99C81.06,-170.91 55.7,-143.82 70.5,-121 81.75,-103.65 100.58,-92.27 119.62,-84.83"/>
<polygon fill="#63b8ff" stroke="#63b8ff" points="121.02,-88.05 129.25,-81.38 118.66,-81.46 121.02,-88.05"/>
</a>
</g>
</g>
<!-- Node11&#45;&gt;Node10 -->
<g id="edge18_Node000011_Node000010" class="edge">
<title>Node11&#45;&gt;Node10</title>
<g id="a_edge18_Node000011_Node000010"><a xlink:title=" ">
<path fill="none" stroke="#63b8ff" d="M97.32,-186.94C85.18,-178.09 70.93,-165.59 62.5,-151 39.87,-111.81 35.26,-57.36 34.49,-29.14"/>
<polygon fill="#63b8ff" stroke="#63b8ff" points="37.99,-29.02 34.35,-19.07 30.99,-29.12 37.99,-29.02"/>
</a>
</g>
</g>
<!-- Node12 -->
<g id="Node000012" class="node">
<title>Node12</title>
<g id="a_Node000012"><a xlink:href="parameter__pack_8h_source.html" target="_top" xlink:title=" ">
<polygon fill="white" stroke="#666666" points="421.5,-151 279.5,-151 279.5,-121 421.5,-121 421.5,-151"/>
<text text-anchor="start" x="287.5" y="-139" font-family="Helvetica,sans-Serif" font-size="10.00">asyncpp/detail/parameter</text>
<text text-anchor="middle" x="350.5" y="-128" font-family="Helvetica,sans-Serif" font-size="10.00">_pack.h</text>
</a>
</g>
</g>
<!-- Node11&#45;&gt;Node12 -->
<g id="edge14_Node000011_Node000012" class="edge">
<title>Node11&#45;&gt;Node12</title>
<g id="a_edge14_Node000011_Node000012"><a xlink:title=" ">
<path fill="none" stroke="#63b8ff" d="M170.19,-186.95C205.55,-177.16 252.88,-164.05 290.18,-153.71"/>
<polygon fill="#63b8ff" stroke="#63b8ff" points="291.22,-157.06 299.92,-151.01 289.35,-150.31 291.22,-157.06"/>
</a>
</g>
</g>
<!-- Node12&#45;&gt;Node6 -->
<g id="edge15_Node000012_Node000006" class="edge">
<title>Node12&#45;&gt;Node6</title>
<g id="a_edge15_Node000012_Node000006"><a xlink:title=" ">
<path fill="none" stroke="#63b8ff" d="M346.6,-120.72C340.4,-98.02 328.3,-53.72 321.48,-28.75"/>
<polygon fill="#63b8ff" stroke="#63b8ff" points="324.85,-27.79 318.84,-19.07 318.1,-29.64 324.85,-27.79"/>
</a>
</g>
</g>
<!-- Node12&#45;&gt;Node13 -->
<g id="edge16_Node000012_Node000013" class="edge">
<title>Node12&#45;&gt;Node13</title>
<g id="a_edge16_Node000012_Node000013"><a xlink:title=" ">
<path fill="none" stroke="#63b8ff" d="M368.48,-120.8C381.48,-110.53 399.01,-96.67 412.29,-86.18"/>
<polygon fill="#63b8ff" stroke="#63b8ff" points="414.63,-88.79 420.31,-79.84 410.29,-83.3 414.63,-88.79"/>
</a>
</g>
</g>
<!-- Node14&#45;&gt;Node7 -->
<g id="edge22_Node000014_Node000007" class="edge">
<title>Node14&#45;&gt;Node7</title>
<g id="a_edge22_Node000014_Node000007"><a xlink:title=" ">
<path fill="none" stroke="#63b8ff" d="M521.07,-126.28C511.05,-110.68 488.42,-77.52 463.5,-55 450.22,-43 433.33,-32.16 419.47,-24.18"/>
<polygon fill="#63b8ff" stroke="#63b8ff" points="420.88,-20.96 410.44,-19.14 417.46,-27.07 420.88,-20.96"/>
</a>
</g>
</g>
<!-- Node14&#45;&gt;Node13 -->
<g id="edge23_Node000014_Node000013" class="edge">
<title>Node14&#45;&gt;Node13</title>
<g id="a_edge23_Node000014_Node000013"><a xlink:title=" ">
<path fill="none" stroke="#63b8ff" d="M513.69,-126.37C498.11,-115.87 471.57,-98 452.88,-85.4"/>
<polygon fill="#63b8ff" stroke="#63b8ff" points="454.66,-82.38 444.41,-79.7 450.75,-88.19 454.66,-82.38"/>
</a>
</g>
</g>
<!-- Node15 -->
<g id="Node000015" class="node">
<title>Node15</title>
<g id="a_Node000015"><a xlink:title=" ">
<polygon fill="#e0e0e0" stroke="#999999" points="576,-79.5 511,-79.5 511,-60.5 576,-60.5 576,-79.5"/>
<text text-anchor="middle" x="543.5" y="-67.5" font-family="Helvetica,sans-Serif" font-size="10.00">exception</text>
</a>
</g>
</g>
<!-- Node14&#45;&gt;Node15 -->
<g id="edge21_Node000014_Node000015" class="edge">
<title>Node14&#45;&gt;Node15</title>
<g id="a_edge21_Node000014_Node000015"><a xlink:title=" ">
<path fill="none" stroke="#63b8ff" d="M528.79,-126.37C531.26,-117.07 535.27,-101.98 538.48,-89.9"/>
<polygon fill="#63b8ff" stroke="#63b8ff" points="541.95,-90.47 541.13,-79.91 535.18,-88.67 541.95,-90.47"/>
</a>
</g>
</g>
</g>
</svg>
